<?xml version="1.0" encoding="utf-8" ?>
<svg xmlns="http://www.w3.org/2000/svg" xmlns:xlink="http://www.w3.org/1999/xlink" width="1950" height="1200">
	<path fill="#A4DDD7" d="M-0 -0L1024 0L1024 1024L-0 1024L0 -0Z"/>
	<path fill="#FDFEFE" d="M84.6784 680.74C82.1234 680.555 79.918 680.054 78.0202 678.25C76.4621 674.711 76.9533 670.902 77.7617 667.206C79.5182 659.176 84.0436 651.444 88.1615 644.43L106.414 615.906C112.061 607.574 118.538 596.107 127.034 590.52C129.53 591.339 131.539 591.99 133.627 593.644C119.384 610.423 81.6094 651.819 83.1401 674.049C83.3017 676.394 83.8013 678.554 84.6784 680.74Z"/>
	<path fill="#4CCBC9" d="M912.731 872.66L933.5 872.688C939.251 872.672 946.109 873.397 951.521 871.281L952.056 871.63C953.621 872.367 956.335 872.007 958.08 872.003L972.341 871.914C973.284 871.909 975.992 871.68 976.75 872.027C976.931 872.11 977.54 872.902 977.588 873L977.964 874.5C977.219 875.721 976.84 876.797 975.25 877.021C969.624 877.812 962.987 877.096 957.25 877.173L874.25 877.539L847.571 877.576C843.146 877.587 838.525 877.337 834.126 877.652C833.03 877.73 832.271 878.125 831.341 878.672C830.021 877.276 828.447 875.402 826.75 874.475C825.198 873.627 822.917 874.446 821.259 874.839L819.623 872.676L912.731 872.66Z"/>
	<path fill="#FDFEFE" d="M146.555 644.887C144.629 642.696 142.371 640.879 140.146 639.003C140.307 636.814 140.996 634.503 141.816 632.467C143.892 627.307 148.053 621.016 153.459 618.957C157.366 617.469 161.015 619.403 164.568 620.908L184.913 630.335C187.973 632.167 191.432 634.299 194.718 635.651C186.629 645.59 181.606 656.062 178.143 668.336C175.729 667.799 172.493 664.15 170.469 662.523L155.165 650.677C152.395 648.626 149.702 646.331 146.555 644.887Z"/>
	<path fill="#038F7D" d="M934.18 788.44C941.882 797.93 945.447 810.274 944.142 822.41C943.6 827.452 942.166 831.756 940.071 836.333L940.857 836.151C945.219 835.162 949.603 835.236 953.487 837.755C958.171 840.793 961.466 846.216 962.317 851.711C963.044 856.41 961.678 862 958.804 865.79C956.912 868.284 954.273 869.895 951.521 871.281C946.109 873.397 939.251 872.672 933.5 872.688L912.731 872.66C908.095 867.833 900.809 865.675 896.223 860.419C895.375 859.448 894.264 858.05 894.028 856.75C892.268 847.048 904.537 846.354 910.231 842.566C915.322 839.18 920.078 834.289 923.619 829.305C929.141 821.534 932.071 812.809 933.643 803.5C934.292 799.653 934.828 795.13 934.139 791.282C934.004 790.523 933.983 790.115 934.067 789.361L934.18 788.44Z"/>
	<path fill="#4CCBC9" d="M436 856.399L436.658 858.52L440.513 873.212L441.93 877.94L383.805 878.551L215.483 877.519L67.4896 877.447L49.0354 877.162C46.8849 877.138 43.5331 877.562 41.5 877.083C41.2704 877.029 40.4104 876.363 40.3158 876.25C39.4383 875.207 39.5567 874.665 39.8268 873.481C40.2243 873.071 40.5415 872.564 41.0192 872.25C42.2234 871.46 45.5913 871.861 46.9871 871.87L64.886 871.996C66.5412 872.004 69.5537 872.425 71.0305 871.657L71.6222 871.32C73.5821 872.206 75.2615 872.704 77.4137 872.847C90.6729 873.724 104.517 872.94 117.835 872.958L200.171 872.927L257.914 873.008L322.893 873.009L347.482 872.981C352.534 872.971 357.736 873.24 362.744 872.494C368.612 869.869 376.564 869.091 382.858 867.639L412.5 860.973C420.397 859.147 427.845 856.775 436 856.399Z"/>
	<path fill="#B9E8E3" d="M436 856.399L436.658 858.52L440.513 873.212L391.872 873.123C382.498 873.069 371.96 873.912 362.744 872.494C368.612 869.869 376.564 869.091 382.858 867.639L412.5 860.973C420.397 859.147 427.845 856.775 436 856.399Z"/>
	<path fill="#DC554C" d="M133.627 593.644L134.321 593.996C137.218 595.434 140.388 596.267 143.306 597.731C151.205 601.691 161.027 610.048 164.059 618.507C164.35 619.319 164.549 620.04 164.568 620.908C161.015 619.403 157.366 617.469 153.459 618.957C148.053 621.016 143.892 627.307 141.816 632.467C140.996 634.503 140.307 636.814 140.146 639.003C142.371 640.879 144.629 642.696 146.555 644.887C146.488 647.214 146.484 650.646 144.507 652.278C143.641 652.994 143.851 652.826 142.851 653.185C144.299 654.188 144.95 654.298 145.335 656.157C145.817 658.48 146.119 663.285 144.775 665.291C143.682 666.923 141.158 668.165 139.25 668.381C135.45 668.811 132.371 665.97 129.745 663.673C127.599 662.879 126.743 662.748 124.577 663.735C124.172 663.919 121.383 665.369 121.211 665.332L112.046 669.89C107.061 672.618 91.9203 682.397 86.5 682.095L84.6784 680.74C83.8013 678.554 83.3017 676.394 83.1401 674.049C81.6094 651.819 119.384 610.423 133.627 593.644Z"/>
	<path fill="#FDFEFE" d="M147.06 456.861C155.3 454.825 163.896 455.258 171.359 459.632C175.352 461.972 178.942 465.101 181.477 469L181.864 469.586C186.156 476.187 187.459 483.312 185.75 490.962L183.762 498.063L184.155 497.677C187.501 494.449 191.256 492.564 196 492.665C199.276 492.735 202.284 494.786 204.3 497.259C206.402 499.838 209.1 504.639 209.479 507.932L68.4715 507.975L68.6272 507.503L68.9117 506.75C70.018 503.783 72.5448 501.072 75.4442 499.737C80.0578 497.613 85.2014 499.663 89.6206 501.222C89.0546 499.201 88.2383 496.866 88.5303 494.75C89.4442 488.126 92.7187 481.419 98.0838 477.333C102.607 473.889 108.169 472.567 113.75 473.527C121.049 474.782 126.616 480.342 130.82 486.023C130.043 481.222 129.285 477.149 130.856 472.406C133.306 465.013 140.495 460.287 147.06 456.861Z"/>
	<path fill="#FDFEFE" d="M208.28 133.64C212.842 133.245 217.565 133.352 222 134.563C231.439 137.138 239.79 143.805 244.537 152.366C248.519 159.547 251.363 170.14 248.813 178.19L248.538 179L244.231 189.101C246.483 187.686 248.782 186.205 251.328 185.377C256.333 183.75 263.729 183.414 267.893 187.123C269.176 188.266 270.881 190.837 272.261 191.591C275.123 193.154 279.029 192.823 282.108 194.678C283.158 195.311 285.503 197.186 285.749 198.305L180.625 198.118L104.763 197.965C106.946 195.798 109.171 193.745 111.928 192.307C118.946 188.648 129.459 189.437 136.806 191.581C135.496 186.171 134.284 182.351 134.955 176.657C135.778 169.672 139.663 163.454 145.191 159.173C149.982 155.462 157.101 152.891 163.211 153.789L164 153.917C170.845 154.969 175.238 159.035 179.435 164.23C179.543 157.74 181.41 152.562 185.121 147.259C190.679 139.319 198.909 135.26 208.28 133.64Z"/>
	<defs>
		<linearGradient id="gradient_0" gradientUnits="userSpaceOnUse" x1="64.006058" y1="860.01569" x2="185.0045" y2="813.24152">
			<stop offset="0" stop-color="#009178"/>
			<stop offset="1" stop-color="#08AB87"/>
		</linearGradient>
	</defs>
	<path fill="url(#gradient_0)" d="M71.6222 871.32C68.8242 869.427 66.2515 866.772 64.7082 863.75C62.35 859.132 61.5678 853.108 63.199 848.113C64.7812 843.267 67.7514 839.195 72.4257 836.949C77.0976 834.705 81.3498 835.663 85.9775 837.238C86.2113 835.524 83.9931 831.415 83.4468 829.514C81.2331 821.81 81.4339 811.531 84.1448 804.003C87.9435 793.452 96.0763 783.404 106.33 778.618L106.258 779.34C105.949 781.711 104.332 784.071 103.689 786.449C101.378 794.997 103.412 803.953 108.435 811.147C113.596 818.538 120.09 823.888 129 826.029L129.691 826.2C139.017 828.321 149.559 822.545 158.547 825.845L159.232 826.087C168.71 829.583 167.865 841.619 176 846.534C183.869 851.287 198.42 847.681 203.133 857.603C204.477 860.431 204.612 865.301 203.556 868.25C202.892 870.105 201.7 871.705 200.171 872.927L117.835 872.958C104.517 872.94 90.6729 873.724 77.4137 872.847C75.2615 872.704 73.5821 872.206 71.6222 871.32Z"/>
	<path fill="#09C297" d="M114.468 774.783C129.671 770.825 144.189 772.269 157.869 780.25C172.378 788.715 181.852 802.394 185.957 818.5L187.322 824.528C195.36 819.313 202.96 817.713 212.349 819.73L214.751 820.313C217.123 821.094 219.289 821.933 221.513 823.097C229.63 828.434 234.413 835.473 236.261 845.07L236.329 845.478C243.649 845.902 248.672 846.94 253.717 852.664C257.464 856.915 259.583 862.832 259.033 868.5C258.884 870.036 258.413 871.555 257.914 873.008L200.171 872.927C201.7 871.705 202.892 870.105 203.556 868.25C204.612 865.301 204.477 860.431 203.133 857.603C198.42 847.681 183.869 851.287 176 846.534C167.865 841.619 168.71 829.583 159.232 826.087L158.547 825.845C149.559 822.545 139.017 828.321 129.691 826.2L129 826.029C120.09 823.888 113.596 818.538 108.435 811.147C103.412 803.953 101.378 794.997 103.689 786.449C104.332 784.071 105.949 781.711 106.258 779.34L106.33 778.618C108.803 776.917 111.701 775.908 114.468 774.783Z"/>
	<path fill="#B9E8E3" d="M793.654 662.868L793.938 662.505C794.489 661.967 794.834 661.913 795.53 661.683C805.484 658.407 815.789 651.277 824.835 645.943L850.778 631.068C856.081 628.024 861.914 623.795 867.91 622.357C874.836 620.697 882.915 621.999 889.233 625.224C895.125 628.231 899.319 633.49 901.3 639.771C903.437 646.545 903.164 654.006 899.75 660.298C891.598 675.322 819.321 744.427 804.226 752.455L802.608 713.878C802.317 705.262 802.448 695.929 800.916 687.463C799.397 679.072 796.396 670.923 793.654 662.868Z"/>
	<path fill="#7F2E19" d="M355.19 154.594C353.865 149.04 354.331 143.41 357.162 138.38C359.633 133.99 363.806 131.037 368.581 129.656L369.5 129.4C372.534 128.539 375.636 128.567 378.767 128.477C379.498 122.959 380.955 117.683 384.373 113.162C392.357 102.6 405.776 99.1863 418.443 101.359C425.715 102.607 432.746 105.407 440.25 104.496C445.401 103.871 449.933 100.694 454.37 98.2415C456.418 97.1098 458.734 95.6296 461.103 95.4263C463.28 95.2393 465.342 95.5487 467.028 97.0339C471.519 100.992 471.291 110.408 471.403 115.927C473.482 113.407 476.398 109.676 480 109.564C481.268 109.524 482.258 109.973 483.168 110.832C487.307 114.741 486.431 123.039 486.422 128.232C485.475 138.035 483.673 150.583 475.73 157.44C472.474 160.25 467.409 162.469 463.142 163.242C445.939 166.97 427.791 164.904 411.313 159.168C406.835 157.609 401.331 154.476 396.75 153.899L396.143 155.351L396.115 155.907C395.469 159.598 394.93 163.453 393.63 166.984C391.107 173.834 387.208 180.125 384.985 187.108C383.61 191.428 383.151 195.88 382.732 200.371L382.495 199.935C380.807 197.14 378.245 195.186 375 194.505C373.044 194.094 371.374 194.758 369.563 195.42C368.728 195.725 369.1 195.674 368.351 195.651L355.19 154.594Z"/>
	<path fill="#410F1B" d="M387.918 151.345L388.057 149.25C388.804 144.683 390.487 139.9 394.387 137.087C401.446 131.994 410.683 132.701 418.643 134.803C421.845 135.648 424.948 136.9 428.218 137.463C436.389 138.871 444.34 139.146 451.796 134.779C461.956 128.828 465.278 119.812 468.211 109.041L468.667 109.25C468.761 114.52 466.536 121.534 463.639 126C459.255 132.758 452.312 138.006 444.314 139.556L443.75 139.661C433.802 141.586 425.548 138.75 416.025 136.329C410.329 134.882 402.003 134.655 396.8 137.803C391.987 140.716 390.352 146.428 388.916 151.492L389.5 152.333C391.678 152.497 393.912 152.51 395.983 153.25L396.143 155.351L396.115 155.907C395.469 159.598 394.93 163.453 393.63 166.984C391.107 173.834 387.208 180.125 384.985 187.108C383.61 191.428 383.151 195.88 382.732 200.371L382.495 199.935C380.807 197.14 378.245 195.186 375 194.505C373.044 194.094 371.374 194.758 369.563 195.42C368.728 195.725 369.1 195.674 368.351 195.651L355.19 154.594C365.822 153.301 376.242 154.571 386.934 152.75L387.918 151.345Z"/>
	<path fill="#E06552" d="M396.143 155.351L396.75 153.899C401.331 154.476 406.835 157.609 411.313 159.168C427.791 164.904 445.939 166.97 463.142 163.242L462.931 176.033L462.489 184.069L462.172 190.415L460.621 214.75C459.46 228.626 457.276 246.04 445.971 255.716C440.71 260.219 432.901 262.484 425.991 261.866L425.085 261.767L421.966 261.529L422.502 273.454L421.844 273.494C409.326 274.056 395.377 265.272 386.58 257.139C387.094 253.879 388.229 249.84 387.929 246.563C387.54 242.297 384.904 237.226 383.894 232.855C382.644 229.838 382.168 225.992 381.297 222.788C378.994 223.572 376.006 224.955 373.555 224.808C369.912 224.59 366.516 222.241 364.25 219.492C360.71 215.197 359.819 210.833 360.2 205.443C360.765 204.348 361.026 203.124 361.548 202C363.108 198.64 364.952 196.988 368.351 195.651C369.1 195.674 368.728 195.725 369.563 195.42C371.374 194.758 373.044 194.094 375 194.505C378.245 195.186 380.807 197.14 382.495 199.935L382.732 200.371C383.151 195.88 383.61 191.428 384.985 187.108C387.208 180.125 391.107 173.834 393.63 166.984C394.93 163.453 395.469 159.598 396.115 155.907L396.143 155.351Z"/>
	<path fill="#B03A3A" d="M430.573 206.26C433.889 208.082 437.962 210.344 440.75 212.893C441.24 214.668 441.176 214.999 440.75 216.703C438.531 218.847 437.044 218.82 434.033 219.103L431.25 218.551C431.373 217.391 436.675 216.116 438.098 214.5C438.044 212.356 432.108 208.988 430.784 206.653L430.573 206.26Z"/>
	<path fill="#57202F" d="M462.172 190.415L459.397 186.347C457.35 183.887 454.58 182.449 451.521 184.107C450.003 184.93 448.845 186.06 447.088 185.9L446.623 184.75C446.977 183.426 447.029 182.768 448.006 181.763C449.457 180.269 451.404 179.513 453.5 179.555C457.393 179.634 459.854 181.495 462.489 184.069L462.172 190.415Z"/>
	<path fill="#410F1B" d="M409.592 179.11L411.841 179.17C414.867 179.423 417.495 179.965 419.374 182.586C420.335 183.926 420.498 184.589 420.25 186.165C418.513 186.732 416.41 184.528 414.661 183.799C413.386 183.268 412.078 183.118 410.711 183.066L410.25 183.055C406.104 183.917 405.611 187.108 402.5 188.981L401.75 188.483C401.857 186.851 402.156 185.47 402.91 184C404.388 181.12 406.679 180.156 409.592 179.11Z"/>
	<path fill="#0C0B0C" d="M450.549 194.75L451 194.71C452.283 194.95 452.98 195.446 453.795 196.426C455.281 198.211 454.981 201.821 454.763 203.984C454.517 206.435 454.089 207.109 452.25 208.629C451.624 208.815 450.896 208.891 450.25 209.005C449.788 208.656 449.595 208.544 449.223 208.162C448.092 207.004 447.953 205.513 447.92 203.964C447.849 200.603 448.117 197.26 450.549 194.75Z"/>
	<path fill="#0C0B0C" d="M413.971 194.25L414.281 194.274C415.244 194.534 415.535 194.656 416.149 195.47C417.959 197.866 418.46 201.849 417.852 204.734C417.405 206.859 416.463 207.783 414.75 208.927C414.355 208.958 413.923 209.02 413.532 208.904C412.504 208.6 411.936 208.173 411.38 207.291C409.912 204.963 410.029 200.359 410.802 197.808C411.373 195.919 412.314 195.19 413.971 194.25Z"/>
	<path fill="#B03A3A" d="M370.877 202.75C371.903 202.343 373.164 202.197 374.25 202.47C376.093 202.932 377.642 204.686 378.388 206.367C379.284 208.384 378.729 209.766 377.972 211.696C377.66 212.494 379.282 214.394 379.486 215.75L376.212 218.394C375.385 218.649 375.278 218.772 374.456 218.72C371.981 218.565 370.113 216.724 368.584 214.944C367.047 213.155 367.115 209.962 367.422 207.75C367.748 205.392 368.999 204.036 370.877 202.75Z"/>
	<path fill="#DC554C" d="M396.143 155.351L396.75 153.899C401.331 154.476 406.835 157.609 411.313 159.168C427.791 164.904 445.939 166.97 463.142 163.242L462.931 176.033C458.854 175.613 454.142 173.72 450.051 172.816C438.679 170.303 426.991 169.145 416.024 164.987C411.644 163.327 407.313 161.402 403.125 159.306C401.093 158.289 399.124 156.932 396.978 156.189L396.115 155.907L396.143 155.351Z"/>
	<path fill="#FDFEFE" d="M411.773 222.472L446.688 223.586C445.547 227.334 443.84 230.642 441.608 233.846C439.993 235.491 438.309 236.971 436.098 237.755C431.643 239.333 425.301 238.384 421.213 236.163C415.659 233.145 413.373 228.258 411.773 222.472Z"/>
	<path fill="#7F2E19" d="M383.894 232.855L384.362 233.6C386.681 237.332 388.569 240.933 391.365 244.383C399.275 254.146 409.028 258.387 420.922 261.259L421.966 261.529L422.502 273.454L421.844 273.494C409.326 274.056 395.377 265.272 386.58 257.139C387.094 253.879 388.229 249.84 387.929 246.563C387.54 242.297 384.904 237.226 383.894 232.855Z"/>
	<path fill="#07A582" d="M806.883 806.49C810.465 806.443 814.122 806.331 817.673 806.89C826.336 808.253 831.64 811.802 836.775 818.644C839.243 811.693 840.279 805.28 843.988 798.705C851.275 785.786 864.074 775.941 878.368 772.002C891.681 768.334 906.551 769.27 918.683 776.077C924.498 778.966 930.44 783.011 934.18 788.44L934.067 789.361C933.983 790.115 934.004 790.523 934.139 791.282C934.828 795.13 934.292 799.653 933.643 803.5C932.071 812.809 929.141 821.534 923.619 829.305C920.078 834.289 915.322 839.18 910.231 842.566C904.537 846.354 892.268 847.048 894.028 856.75C894.264 858.05 895.375 859.448 896.223 860.419C900.809 865.675 908.095 867.833 912.731 872.66L819.623 872.676C819.301 870.69 818.283 868.894 817.61 867.006C816.589 864.144 815.772 861.27 815.089 858.311C814.327 856.459 814.116 853.824 813.704 851.834L810.303 832.008L806.883 806.49Z"/>
	<path fill="#09C297" d="M806.883 806.49C810.465 806.443 814.122 806.331 817.673 806.89C826.336 808.253 831.64 811.802 836.775 818.644C839.243 811.693 840.279 805.28 843.988 798.705C851.275 785.786 864.074 775.941 878.368 772.002C891.681 768.334 906.551 769.27 918.683 776.077C921.369 786.867 918.96 797.506 913.146 806.905C909.293 813.135 904.157 818.212 896.73 819.705C892.388 820.579 887.485 819.56 883.139 819.149C877.965 818.659 872.501 818.834 867.544 820.505C864.73 821.454 861.615 822.943 859.215 824.714C854.215 828.403 848.259 836.628 842 837.447C839.891 837.723 837.759 837.633 835.836 836.686L835.358 836.458C832.971 835.27 831.057 833.319 828.841 831.872C826.724 830.489 824.445 829.857 822 829.381L821.378 829.247C817.997 828.576 813.215 830.297 810.303 832.008L806.883 806.49Z"/>
	<path fill="#CEEFEE" d="M114.468 774.783L114.206 773.764C121.982 763.716 131.569 755.208 140.997 746.75C162.238 727.696 184.578 710.444 207.916 694.056C228.915 710.999 250.353 727.097 274.281 739.743C281.988 743.816 290.53 748.179 299.036 750.237C292.841 755.752 285.717 759.989 278.942 764.723L260.518 778.81L224.842 810.625L214.751 820.313L212.349 819.73C202.96 817.713 195.36 819.313 187.322 824.528L185.957 818.5C181.852 802.394 172.378 788.715 157.869 780.25C144.189 772.269 129.671 770.825 114.468 774.783Z"/>
	<path fill="#0A5A6E" d="M282.007 503.141C285.191 504.009 288.078 506.836 290.647 508.839L303.533 518.528L309.872 522.354L313.312 524.177L319.265 526.965C333.565 532.124 348.512 535.776 363.719 536.793C377.503 537.715 391.465 536.385 405.059 534.108C411.632 533.007 419.325 532.017 425.506 529.576L431.384 550.078L434.763 561.823L376.995 580.231C376.992 602.808 374.8 624.634 370.937 646.893C370.622 648.708 369.268 654.054 370.19 655.396L369.873 655.983C368.912 657.855 368.634 660.451 368.143 662.5L364.75 674.918C360.659 688.512 355.341 701.995 349.383 714.873C345.922 722.355 342.159 730.421 336.629 736.618C331.499 742.366 324.248 747.072 316.979 749.654L310.615 751.248C306.657 751.179 302.931 750.987 299.036 750.237C290.53 748.179 281.988 743.816 274.281 739.743C250.353 727.097 228.915 710.999 207.916 694.056L178.143 668.336C181.606 656.062 186.629 645.59 194.718 635.651C191.432 634.299 187.973 632.167 184.913 630.335C206.075 609.241 228.626 589.563 251.947 570.91C257.605 566.385 263.372 560.71 269.5 556.94L270.182 557.859C270.201 557.847 270.237 557.845 270.24 557.822C270.799 552.295 270.585 546.466 271.832 541.024L271.918 538.993C273.673 530.511 275.525 522.067 277.972 513.753C279.015 510.209 279.894 506.22 282.007 503.141Z"/>
	<path fill="#92B1CC" d="M313.312 524.177L319.265 526.965C317.177 534.685 314.876 542.475 313.442 550.344C312.914 553.243 312.175 556.521 312.57 559.455L312.212 560.095L311.961 559.726C310.697 558.154 306.539 557.921 304.5 557.559L303.566 558.319L303.374 558.061L313.312 524.177Z"/>
	<path fill="#0A2242" d="M195.85 636.262C219.074 639.26 244.627 645.416 265.312 656.619C270.573 659.468 275.349 662.975 280.318 666.273C282.125 670.171 283.026 674.861 284.163 679.007C286.809 688.654 289.41 698.15 290.686 708.092C285.5 696.039 278.623 684.19 269.351 674.767C257.765 662.991 240.921 654.242 225.676 648.299L195.64 637.317L195.85 636.262Z"/>
	<path fill="#FDFEFE" d="M294.154 554.64C296.271 554.99 298.501 555.554 300.423 556.526L300.31 558.314C299.946 558.968 299.915 560.807 299.816 561.651C299.302 566.046 299.132 570.579 298.998 575C297.588 621.741 301.796 668.947 310.888 714.807L305.325 715.581C303.631 710.446 302.82 704.821 301.719 699.526C297.102 677.319 294.952 655.037 293.449 632.451C291.738 606.729 290.778 580.26 294.154 554.64Z"/>
	<path fill="#FDFEFE" d="M303.566 558.319L304.5 557.559C306.539 557.921 310.697 558.154 311.961 559.726L312.212 560.095C308.13 597.329 311.31 635.874 314.686 673.051L317.173 697.827C317.742 703.074 318.638 708.498 318.594 713.773L313.896 714.319C311.311 705.672 310.948 695.445 309.731 686.467C303.977 644.03 299.693 601.146 303.566 558.319Z"/>
	<path fill="#1A4268" d="M282.007 503.141C285.191 504.009 288.078 506.836 290.647 508.839L303.533 518.528L309.872 522.354L302.591 546.014C301.747 549.328 300.557 553.106 300.423 556.526C298.501 555.554 296.271 554.99 294.154 554.64L294.065 554.065C291.956 553.634 290.085 552.831 288.153 551.911C284.232 550.045 273.318 545.197 271.832 541.024L271.918 538.993C273.673 530.511 275.525 522.067 277.972 513.753C279.015 510.209 279.894 506.22 282.007 503.141Z"/>
	<path fill="#92B1CC" d="M303.533 518.528L309.872 522.354L302.591 546.014C301.747 549.328 300.557 553.106 300.423 556.526C298.501 555.554 296.271 554.99 294.154 554.64L294.065 554.065L303.533 518.528Z"/>
	<path fill="#0A2242" d="M319.265 526.965C333.565 532.124 348.512 535.776 363.719 536.793C377.503 537.715 391.465 536.385 405.059 534.108C411.632 533.007 419.325 532.017 425.506 529.576L431.384 550.078C423.113 552.755 414.764 554.38 406.28 556.17C385.719 560.508 365.052 563.768 343.969 562.789L319.625 560.589C317.281 560.316 314.896 559.641 312.57 559.455C312.175 556.521 312.914 553.243 313.442 550.344C314.876 542.475 317.177 534.685 319.265 526.965Z"/>
	<path fill="#CEEFEE" d="M184.913 630.335C206.075 609.241 228.626 589.563 251.947 570.91C257.605 566.385 263.372 560.71 269.5 556.94L270.182 557.859C268.814 585.218 270.834 612.957 275.25 639.974L280.318 666.273C275.349 662.975 270.573 659.468 265.312 656.619C244.627 645.416 219.074 639.26 195.85 636.262L194.718 635.651C191.432 634.299 187.973 632.167 184.913 630.335Z"/>
	<path fill="#B9E8E3" d="M147.06 456.861L157.193 441.184C168.938 421.785 180.221 397.971 176.089 374.75C175.109 369.24 173.728 363.772 173.17 358.191C172.065 347.143 172.977 336.125 175.632 325.356C179.008 311.663 185.528 298.951 194.466 288.08C203.525 277.064 215.403 267.768 228.088 261.259C236.753 256.814 246.044 253.7 255.258 250.617L305.916 233.93C316.195 230.036 326.78 225.861 336.353 220.435L360.2 205.443C359.819 210.833 360.71 215.197 364.25 219.492C366.516 222.241 369.912 224.59 373.555 224.808C376.006 224.955 378.994 223.572 381.297 222.788C382.168 225.992 382.644 229.838 383.894 232.855C384.904 237.226 387.54 242.297 387.929 246.563C388.229 249.84 387.094 253.879 386.58 257.139C386.127 259.37 384.27 270.153 382.376 271.221C381.545 271.69 380.668 271.678 379.738 271.764L369.869 272.911C352.766 276.555 336.796 282.129 320.5 288.383C314.569 290.614 308.956 293.737 303.327 296.627L271.958 313.909C266.664 316.99 258.849 320.487 255.075 325.25L255.068 327.761C256.913 341.063 261.433 353.625 268.375 365.118C271.039 369.529 273.836 373.831 278 376.972L279.208 377.799C286.265 376.882 294.487 372.446 300.947 369.51C301.249 385.37 302.404 400.681 305.553 416.275L309.335 432.044C309.695 433.351 311.23 437.059 311.08 438.234C311.012 438.76 309.913 440.261 309.623 440.765L304.419 449.697C295.436 466.424 284.273 482.87 280.618 501.75C281.046 502.197 281.509 502.781 282.007 503.141C279.894 506.22 279.015 510.209 277.972 513.753C275.525 522.067 273.673 530.511 271.918 538.993C270.308 539.057 269.422 538.25 268.079 537.435C264.627 535.343 261.294 532.353 257.561 530.899C256.114 530.335 255.626 530.04 254.75 528.755L255.945 527.951L253.584 527.25L253.163 527.835C252.325 528.845 251.49 529.254 250.191 529.412C248.338 529.638 246.628 529.571 245.11 528.367L243.5 527.146L241.755 529.25C240.943 529.424 240.358 529.43 239.553 529.198C236.08 528.197 235.036 526.601 233.403 523.497C227.178 523.5 220.758 517.221 216.54 513.157C214.482 511.173 212.291 508.726 209.479 507.932C209.1 504.639 206.402 499.838 204.3 497.259C202.284 494.786 199.276 492.735 196 492.665C191.256 492.564 187.501 494.449 184.155 497.677L183.762 498.063L185.75 490.962C187.459 483.312 186.156 476.187 181.864 469.586L181.477 469C178.942 465.101 175.352 461.972 171.359 459.632C163.896 455.258 155.3 454.825 147.06 456.861Z"/>
	<path fill="#DC554C" d="M232.211 519.551C231.209 517.177 230.884 514.014 230.546 511.46C229.68 504.914 229.758 498.105 228.131 491.713C226.013 483.387 222.418 475.27 219.766 467.075C212.846 445.699 206.683 423.809 202.376 401.75C200.628 392.796 198.293 382.535 199.898 373.427C200.367 370.764 201.039 367.449 202.721 365.272C205.241 362.011 209.555 359.351 212.856 356.847L242.652 335.72L255.068 327.761C256.913 341.063 261.433 353.625 268.375 365.118C271.039 369.529 273.836 373.831 278 376.972L279.208 377.799C286.265 376.882 294.487 372.446 300.947 369.51C301.249 385.37 302.404 400.681 305.553 416.275L309.335 432.044C309.695 433.351 311.23 437.059 311.08 438.234C311.012 438.76 309.913 440.261 309.623 440.765L304.419 449.697C295.436 466.424 284.273 482.87 280.618 501.75C281.046 502.197 281.509 502.781 282.007 503.141C279.894 506.22 279.015 510.209 277.972 513.753C275.525 522.067 273.673 530.511 271.918 538.993C270.308 539.057 269.422 538.25 268.079 537.435C264.627 535.343 261.294 532.353 257.561 530.899C256.114 530.335 255.626 530.04 254.75 528.755L255.945 527.951L253.584 527.25L253.163 527.835C252.325 528.845 251.49 529.254 250.191 529.412C248.338 529.638 246.628 529.571 245.11 528.367L243.5 527.146L241.755 529.25C240.943 529.424 240.358 529.43 239.553 529.198C236.08 528.197 235.036 526.601 233.403 523.497L232.211 519.551Z"/>
	<path fill="#B03A3A" d="M232.211 519.551C235.333 519.898 247.445 526.062 249.441 524.127C250.259 523.334 250.57 522.289 250.968 521.25L251.482 521.25L251.96 521.971C252.803 523.149 254.393 523.829 255.801 524.028C256.929 524.188 257.923 523.931 258.831 523.25C260.621 521.907 262.079 518.996 263.275 517.133C262.851 519.667 262.485 522.202 261.761 524.672C259.785 526.597 258.757 527.651 255.945 527.951L253.584 527.25L253.163 527.835C252.325 528.845 251.49 529.254 250.191 529.412C248.338 529.638 246.628 529.571 245.11 528.367L243.5 527.146L241.755 529.25C240.943 529.424 240.358 529.43 239.553 529.198C236.08 528.197 235.036 526.601 233.403 523.497L232.211 519.551Z"/>
	<path fill="#B03A3A" d="M246.37 396.951L245.78 397.29C245.529 397.277 245.256 397.353 245.028 397.25C244.416 396.974 242.646 394.608 242.057 393.983C239.186 390.942 236.296 387.788 232.979 385.231L232.42 384.806L234.132 385.098C239.249 386.209 244.427 386.416 249.634 385.701L268.981 381.948L265.888 383.972L265.884 383.995L252.614 392.588C250.605 393.929 248.064 395.263 246.37 396.951Z"/>
	<path fill="#B9E8E3" d="M279.208 377.799C286.265 376.882 294.487 372.446 300.947 369.51C301.249 385.37 302.404 400.681 305.553 416.275L309.335 432.044C309.695 433.351 311.23 437.059 311.08 438.234C311.012 438.76 309.913 440.261 309.623 440.765L304.419 449.697C295.436 466.424 284.273 482.87 280.618 501.75C281.046 502.197 281.509 502.781 282.007 503.141C279.894 506.22 279.015 510.209 277.972 513.753C275.525 522.067 273.673 530.511 271.918 538.993C270.308 539.057 269.422 538.25 268.079 537.435C264.627 535.343 261.294 532.353 257.561 530.899C256.114 530.335 255.626 530.04 254.75 528.755L255.945 527.951C258.757 527.651 259.785 526.597 261.761 524.672C264.577 523.016 266.996 521.604 269.334 519.282C269.725 514.167 268.014 508.158 267.107 503.111C269.218 502.896 273.715 502.804 275.476 501.732C276.353 501.198 277.449 499.894 278.18 499.13C279.49 497.761 279.806 494.893 279.487 493C279.327 492.053 278.892 491.584 278.095 491.125C276.097 489.974 273.274 489.387 271.075 488.681C264.583 486.594 256.865 484.94 251.041 481.401C249.207 477.332 248.796 473.707 248.26 469.348C247.219 460.874 247.29 452.213 247.068 443.683L246.37 396.951C248.064 395.263 250.605 393.929 252.614 392.588L265.884 383.995L265.888 383.972L268.981 381.948L279.208 377.799Z"/>
	<path fill="#A4DDD7" d="M279.208 377.799C286.265 376.882 294.487 372.446 300.947 369.51C301.249 385.37 302.404 400.681 305.553 416.275L309.335 432.044C309.695 433.351 311.23 437.059 311.08 438.234C311.012 438.76 309.913 440.261 309.623 440.765L304.419 449.697C303.816 449.467 303.301 449.267 302.75 448.923C292.645 442.613 261.781 411.724 261.338 399.797C261.145 394.6 267.124 388.533 265.884 383.995L265.888 383.972L268.981 381.948L279.208 377.799Z"/>
	<path fill="#F69F4C" d="M386.58 257.139C395.377 265.272 409.326 274.056 421.844 273.494L422.502 273.454L423.082 282L423.912 282.678C426.559 283.12 429.228 283.572 431.697 284.668C441.538 289.248 465.586 302.547 469.587 313.084L471.112 317.904C479.063 336.102 482.722 356.095 485.633 375.647C486.26 379.859 487.418 384.536 487.481 388.774L481.948 391.138L460.742 396.358C456.382 397.448 451.561 399.071 447.11 399.468C444.302 404.048 442.203 409.135 439.671 413.888C437.402 418.15 433.672 423.32 432.38 427.89C430.307 431.278 429.187 435.577 428.141 439.392C423.075 457.879 423.009 479.322 427.548 497.917L432.153 513.604L436.859 524.891C435.933 526.481 427.689 528.646 425.506 529.576C419.325 532.017 411.632 533.007 405.059 534.108C391.465 536.385 377.503 537.715 363.719 536.793C348.512 535.776 333.565 532.124 319.265 526.965L313.312 524.177L309.872 522.354L303.533 518.528L290.647 508.839C288.078 506.836 285.191 504.009 282.007 503.141C281.509 502.781 281.046 502.197 280.618 501.75C284.273 482.87 295.436 466.424 304.419 449.697L309.623 440.765C309.913 440.261 311.012 438.76 311.08 438.234C311.23 437.059 309.695 433.351 309.335 432.044L305.553 416.275C302.404 400.681 301.249 385.37 300.947 369.51C294.487 372.446 286.265 376.882 279.208 377.799L278 376.972C273.836 373.831 271.039 369.529 268.375 365.118C261.433 353.625 256.913 341.063 255.068 327.761L255.075 325.25C258.849 320.487 266.664 316.99 271.958 313.909L303.327 296.627C308.956 293.737 314.569 290.614 320.5 288.383C336.796 282.129 352.766 276.555 369.869 272.911L379.738 271.764C380.668 271.678 381.545 271.69 382.376 271.221C384.27 270.153 386.127 259.37 386.58 257.139Z"/>
	<path fill="#F17C30" d="M369.869 272.911L379.738 271.764C378.382 274.511 377.123 277.182 376.2 280.107C379.002 285.697 383.364 290.462 388.5 294.029L389.195 294.523C392.28 296.682 395.661 298.371 399.25 299.489L400.021 299.739C405.932 301.603 413.725 301.939 419.26 298.848C421.712 297.478 424.607 294.569 425.425 291.797C426.359 288.631 424.504 285.698 423.912 282.678C426.559 283.12 429.228 283.572 431.697 284.668L431.069 287.5C430.527 290.011 429.596 292.138 428.305 294.366C425.928 298.468 421.413 301.804 416.883 303.013C407.272 305.577 396.649 302.497 388.359 297.488C378.959 291.81 372.416 283.646 369.869 272.911Z"/>
	<path fill="#E06552" d="M386.58 257.139C395.377 265.272 409.326 274.056 421.844 273.494L422.502 273.454L423.082 282L423.912 282.678C424.504 285.698 426.359 288.631 425.425 291.797C424.607 294.569 421.712 297.478 419.26 298.848C413.725 301.939 405.932 301.603 400.021 299.739L399.25 299.489C395.661 298.371 392.28 296.682 389.195 294.523L388.5 294.029C383.364 290.462 379.002 285.697 376.2 280.107C377.123 277.182 378.382 274.511 379.738 271.764C380.668 271.678 381.545 271.69 382.376 271.221C384.27 270.153 386.127 259.37 386.58 257.139Z"/>
	<path fill="#0A2242" d="M471.112 317.904C479.063 336.102 482.722 356.095 485.633 375.647C486.26 379.859 487.418 384.536 487.481 388.774L481.948 391.138L460.742 396.358C456.382 397.448 451.561 399.071 447.11 399.468C456.424 379.841 465.224 359.22 469.122 337.739C470.322 331.123 470.762 324.601 471.112 317.904Z"/>
	<path fill="#0A5A6E" d="M255.068 327.761L255.075 325.25C258.849 320.487 266.664 316.99 271.958 313.909L303.327 296.627C308.956 293.737 314.569 290.614 320.5 288.383C333.77 295.255 341.494 307.01 345.913 321.09C347.539 326.271 348.621 331.484 348.556 336.935C343.065 346.496 331.737 353.465 322.476 358.996L300.947 369.51C294.487 372.446 286.265 376.882 279.208 377.799L278 376.972C273.836 373.831 271.039 369.529 268.375 365.118C261.433 353.625 256.913 341.063 255.068 327.761Z"/>
	<path fill="#F17C30" d="M322.476 358.996C327.114 375.457 337.421 390.806 352.606 399.25C367.525 407.546 385.622 408.951 401.937 404.065C412.417 400.927 422.083 395.929 430.75 389.255L431.245 389.75C420.706 399.002 409.137 406.715 396.638 413.068C374.069 424.537 327.841 436.772 326.028 467.16C325.444 476.945 329.606 485.612 336.043 492.74C352.146 510.57 376.836 517.341 400.046 518.474C411.231 519.019 421.725 517.808 432.153 513.604L436.859 524.891C435.933 526.481 427.689 528.646 425.506 529.576C419.325 532.017 411.632 533.007 405.059 534.108C391.465 536.385 377.503 537.715 363.719 536.793C348.512 535.776 333.565 532.124 319.265 526.965L313.312 524.177L309.872 522.354L303.533 518.528L290.647 508.839C288.078 506.836 285.191 504.009 282.007 503.141C281.509 502.781 281.046 502.197 280.618 501.75C284.273 482.87 295.436 466.424 304.419 449.697L309.623 440.765C309.913 440.261 311.012 438.76 311.08 438.234C311.23 437.059 309.695 433.351 309.335 432.044L305.553 416.275C302.404 400.681 301.249 385.37 300.947 369.51L322.476 358.996Z"/>
	<path fill="#CEEFEE" d="M434.763 561.823L438.341 574.257L449.286 611.022L457.642 641.611L459.379 648.314C464.212 663.284 469.687 680.548 469.471 696.385L469.515 700.562L468.143 844.328C468.185 846.7 468.509 849.416 468.17 851.746L451.235 855.449L445.612 856.648L436.658 858.52L436 856.399C427.845 856.775 420.397 859.147 412.5 860.973L382.858 867.639C376.564 869.091 368.612 869.869 362.744 872.494C357.736 873.24 352.534 872.971 347.482 872.981L322.893 873.009L257.914 873.008C258.413 871.555 258.884 870.036 259.033 868.5C259.583 862.832 257.464 856.915 253.717 852.664C248.672 846.94 243.649 845.902 236.329 845.478L236.261 845.07C234.413 835.473 229.63 828.434 221.513 823.097C219.289 821.933 217.123 821.094 214.751 820.313L224.842 810.625L260.518 778.81L278.942 764.723C285.717 759.989 292.841 755.752 299.036 750.237C302.931 750.987 306.657 751.179 310.615 751.248L316.979 749.654C324.248 747.072 331.499 742.366 336.629 736.618C342.159 730.421 345.922 722.355 349.383 714.873C355.341 701.995 360.659 688.512 364.75 674.918L368.143 662.5C368.634 660.451 368.912 657.855 369.873 655.983L370.19 655.396C369.268 654.054 370.622 648.708 370.937 646.893C374.8 624.634 376.992 602.808 376.995 580.231L434.763 561.823Z"/>
	<path fill="#B9E8E3" d="M299.036 750.237C302.931 750.987 306.657 751.179 310.615 751.248C309.289 751.707 308.949 751.927 307.971 752.952C306.347 754.651 303.93 756.068 302 757.421L286.293 767.47L267.105 780.318C250.131 792.696 235.979 808 221.513 823.097C219.289 821.933 217.123 821.094 214.751 820.313L224.842 810.625L260.518 778.81L278.942 764.723C285.717 759.989 292.841 755.752 299.036 750.237Z"/>
	<path fill="#0A5A6E" d="M434.763 561.823L438.341 574.257L449.286 611.022L457.642 641.611L459.379 648.314C464.212 663.284 469.687 680.548 469.471 696.385L469.515 700.562L468.143 844.328C468.185 846.7 468.509 849.416 468.17 851.746L451.235 855.449L445.612 856.648L436.658 858.52L436 856.399L414.097 804.151C410.182 793.874 406.375 783.756 404.293 772.919C402.83 765.305 402.432 757.564 402.324 749.829C402.191 740.302 402.752 730.992 404.205 721.573C404.558 719.288 406.373 712.884 405.62 711.028C404.762 708.914 402.159 706.176 400.794 704.203L388.82 686.39L370.19 655.396C369.268 654.054 370.622 648.708 370.937 646.893C374.8 624.634 376.992 602.808 376.995 580.231L434.763 561.823Z"/>
	<path fill="#0A2242" d="M469.515 700.562C464.229 704.004 460.639 708.826 453.75 709.403C452.51 709.507 451.605 709.236 450.662 708.42C451.508 706.877 456.986 705.143 458.928 704.055C462.869 701.848 465.931 699.108 469.471 696.385L469.515 700.562Z"/>
	<path fill="#0A2242" d="M434.763 561.823L438.341 574.257C426.799 578.819 415.94 589.643 410.941 600.85C403.678 617.133 406 635.686 408.431 652.768L415.849 692.196C417.573 699.508 420.276 707.2 421.369 714.589C421.658 716.546 421.006 718.489 420.589 720.386C419.854 723.73 419.094 727.087 418.63 730.481C418.065 734.62 417.953 738.791 417.962 742.963C418.035 776.392 427.377 811.139 439.596 842.066L445.612 856.648L436.658 858.52L436 856.399L414.097 804.151C410.182 793.874 406.375 783.756 404.293 772.919C402.83 765.305 402.432 757.564 402.324 749.829C402.191 740.302 402.752 730.992 404.205 721.573C404.558 719.288 406.373 712.884 405.62 711.028C404.762 708.914 402.159 706.176 400.794 704.203L388.82 686.39L370.19 655.396C369.268 654.054 370.622 648.708 370.937 646.893C374.8 624.634 376.992 602.808 376.995 580.231L434.763 561.823Z"/>
	<path fill="#0FAEAB" d="M763.326 785.929L779.955 823.946C786.544 835.854 793.504 848.261 798.098 861.091C803.791 861.075 809.594 859.681 815.089 858.311C815.772 861.27 816.589 864.144 817.61 867.006C818.283 868.894 819.301 870.69 819.623 872.676L821.259 874.839C822.917 874.446 825.198 873.627 826.75 874.475C828.447 875.402 830.021 877.276 831.341 878.672L842.935 891.956C847.918 897.768 852.914 903.671 860 906.955C864.302 908.949 868.897 910.221 873.496 911.311C875.99 911.901 879.181 912.21 881.426 913.461C882.813 914.234 883.87 915.804 883.912 917.43L883.85 917.888L884.213 919.884L885 919.083C898.791 920.82 912.528 921.433 926.25 923.946C930.155 924.661 935.973 925.343 939.214 927.75C940.399 928.63 940.728 929.062 941.005 930.5C939.808 932.452 937.374 932.879 935.297 933.432C915.41 938.721 893.367 939.601 872.871 940.792L811.103 944.122L411 950.006L252.25 944.739L167 939.6C150.068 938.136 133.01 936.914 116.25 934.008C111.712 933.222 105.834 932.642 101.874 930.136C100.623 929.344 100.701 929.131 100.423 927.75L101.092 926.75C107.252 923.499 116.888 922.997 123.728 922.129L182.474 916.866L344.75 909.264L442.063 906.527C442.59 903.165 443.461 899.278 445.424 896.466C445.548 890.683 443.264 883.579 441.93 877.94L440.513 873.212L436.658 858.52L445.612 856.648L451.235 855.449L468.17 851.746L468.35 881.071C470.274 879.613 472.346 878.572 474.772 878.346L475.226 878.313L475.442 877.653C476.64 875.997 478.038 875.46 479.863 874.627L479.121 874.009C481.756 873.309 484.572 873.576 487.279 873.432L510.82 873.02L580.44 873.096C591.684 873.119 603.298 873.873 614.488 873.071C617.669 871.093 621.311 869.686 624.697 868.086L638.459 861.144L700.181 826.767L741.533 799.98C748.442 795.332 755.753 789.295 763.326 785.929Z"/>
	<defs>
		<linearGradient id="gradient_1" gradientUnits="userSpaceOnUse" x1="494.60574" y1="940.50311" x2="485.87875" y2="913.927">
			<stop offset="0" stop-color="#FFFEFE"/>
			<stop offset="1" stop-color="#E6FBFF"/>
		</linearGradient>
	</defs>
	<path fill="url(#gradient_1)" d="M538.902 915.508C539.926 917.144 540.646 918.318 540.897 920.25C539.496 924.496 533.789 927.418 530 929.342C523.405 932.691 516.093 934.794 508.931 936.57C492.325 940.686 474.657 942.392 457.558 941.659C453.096 941.468 447.722 941.418 443.5 939.902C442.296 939.47 441.446 938.957 440.942 937.75C439.898 935.25 440.437 929.555 440.889 926.842C444.182 928.497 447.312 929.491 450.887 930.37C462.509 931.624 473.872 931.655 485.528 930.855C503.8 929.602 523.492 925.944 538.902 915.508Z"/>
	<path fill="#D01E29" d="M815.089 858.311C815.772 861.27 816.589 864.144 817.61 867.006C818.283 868.894 819.301 870.69 819.623 872.676L821.259 874.839C822.917 874.446 825.198 873.627 826.75 874.475C828.447 875.402 830.021 877.276 831.341 878.672L842.935 891.956C847.918 897.768 852.914 903.671 860 906.955C864.302 908.949 868.897 910.221 873.496 911.311C875.99 911.901 879.181 912.21 881.426 913.461C882.813 914.234 883.87 915.804 883.912 917.43L883.85 917.888L884.213 919.884L883.512 922C881.48 926.56 876.052 929.066 871.665 930.859C860.316 935.496 844.836 935.192 833.534 930.37L795.627 914.927L792.11 912.304C791.286 911.542 790.207 910.157 790.105 908.995C789.88 906.421 790.445 903.955 792.095 901.934L792.071 901.6C792.233 899.456 793.05 897.127 793.504 895C794.685 889.471 795.337 882.087 799.618 878.152L803.146 876.987L801.859 872.945L798.098 861.091C803.791 861.075 809.594 859.681 815.089 858.311Z"/>
	<path fill="#F69F4C" d="M815.089 858.311C815.772 861.27 816.589 864.144 817.61 867.006C818.283 868.894 819.301 870.69 819.623 872.676L821.259 874.839C821.761 876.478 822.03 877.03 821.126 878.55C819.405 881.445 814.986 885.45 811.561 885.995C810.613 886.146 809.621 885.97 808.684 885.809C805.759 883.413 804.513 880.396 803.146 876.987L801.859 872.945L798.098 861.091C803.791 861.075 809.594 859.681 815.089 858.311Z"/>
	<path fill="#FDFEFE" d="M792.095 901.934L811.333 911.044C829.559 920.745 851.07 933.374 872.265 924.81C876.352 923.158 880.205 920.34 883.85 917.888L884.213 919.884L883.512 922C881.48 926.56 876.052 929.066 871.665 930.859C860.316 935.496 844.836 935.192 833.534 930.37L795.627 914.927L792.11 912.304C791.286 911.542 790.207 910.157 790.105 908.995C789.88 906.421 790.445 903.955 792.095 901.934Z"/>
	<path fill="#DC554C" d="M451.235 855.449L468.17 851.746L468.35 881.071C470.274 879.613 472.346 878.572 474.772 878.346L475.226 878.313L475.442 877.653C476.64 875.997 478.038 875.46 479.863 874.627L483.822 874.639C487.21 875.576 489.762 876.493 492.398 878.957L493.721 881.172C494.833 883.046 495.439 884.944 494.875 887.141C494.137 890.014 490.695 892.904 488.196 894.226L482.519 896.523C483.073 897.818 483.717 898.464 485 899.022L500.176 903.982C501.382 904.178 502.483 904.262 503.5 905L503.75 906.307C504.692 906.133 505.172 905.884 506 905.434L513.769 906.776C521.717 908.648 532.861 909.524 538.902 915.508C523.492 925.944 503.8 929.602 485.528 930.855C473.872 931.655 462.509 931.624 450.887 930.37C447.312 929.491 444.182 928.497 440.889 926.842L442.063 906.527C442.59 903.165 443.461 899.278 445.424 896.466C445.548 890.683 443.264 883.579 441.93 877.94L440.513 873.212L436.658 858.52L445.612 856.648L451.235 855.449Z"/>
	<path fill="#FB4325" d="M496.245 911.75C497.262 911.691 497.362 911.736 498.25 912.245L500 911.737L500.75 912.245C500.829 913.092 500.82 913.449 500.426 914.236L500.002 915.003C499.459 916.068 499.035 916.835 498.25 917.755L496.921 918.347L496.25 917.808C495.279 917.793 494.445 917.721 493.498 917.503C492.952 915.337 494.851 914.297 495.823 912.531L496.245 911.75Z"/>
	<path fill="#D01E29" d="M445.424 896.466C449.668 897.669 452.726 899.066 457.215 897.99L456.788 898.574C456.173 899.358 455.435 899.727 454.589 900.218C452.269 901.564 450.939 903.137 450.17 905.75C448.341 911.972 448.634 919.962 449.838 926.25C450.113 927.686 450.4 928.989 450.887 930.37C447.312 929.491 444.182 928.497 440.889 926.842L442.063 906.527C442.59 903.165 443.461 899.278 445.424 896.466Z"/>
	<path fill="#FB4325" d="M479.863 874.627L483.822 874.639C487.21 875.576 489.762 876.493 492.398 878.957L493.721 881.172C494.833 883.046 495.439 884.944 494.875 887.141C494.137 890.014 490.695 892.904 488.196 894.226L482.519 896.523C483.073 897.818 483.717 898.464 485 899.022L500.176 903.982C499.377 904.975 499.126 905.446 498.002 906.003L497.58 906.335C496.23 907.358 494.597 907.974 493.002 908.503C492.752 909.488 492.744 909.983 493.002 910.967L494.255 911.75C494.091 912.91 493.835 913.072 493.255 914L492.502 915.503C491.956 916.582 491.478 917.039 490.5 917.745C489.353 916.609 489.381 916.755 487.745 916.75C488.034 916.178 488.289 915.936 488.745 915.5C488.289 913.704 486.745 914.43 487.75 912.721C488.184 911.983 488.642 911.353 489.245 910.75L488.5 910.255C487.427 911.042 486.831 911.738 486.058 912.793L484.242 912.94C484.243 912.381 484.402 911.242 484.245 910.75C483.789 909.317 482.685 909.613 483.165 907.853C483.453 906.8 483.472 907.213 483.334 906.497L482.863 906.769L481.75 907.255C480.912 907.755 480.569 908.267 479.542 908.385L479 908.396C478.202 909.008 477.423 909.545 476.793 910.337L476.5 910.755L475.74 910C474.823 908.81 475.322 907.439 475.582 906.08L475.409 904.555L474.75 904.255L475.235 903L474.498 902.003L473.744 901.5C473.792 900.131 473.639 898.238 474.377 897.04L474.745 896.5C473.415 894.726 470.477 894.455 468.509 893.037C467.029 893.357 466.3 893.196 464.957 892.523C464.711 892.027 464.611 891.293 464.478 890.75C465.492 887.688 465.729 884.397 468.308 882.212L468.35 881.071C470.274 879.613 472.346 878.572 474.772 878.346L475.226 878.313L475.442 877.653C476.64 875.997 478.038 875.46 479.863 874.627Z"/>
	<path fill="#E06552" d="M483.822 874.639C487.21 875.576 489.762 876.493 492.398 878.957L493.721 881.172L491.172 881.323L489.5 880.745C488.496 880.242 488.444 880.112 487.25 880.219C485.561 880.371 484.727 881.993 483.75 883.245L483.255 882.5C483.63 881.711 483.986 881 484.492 880.283L484.887 879.75C484.249 878.103 484.077 876.375 483.822 874.639Z"/>
	<path fill="#92B1CC" d="M451.235 855.449L468.17 851.746L468.35 881.071L468.308 882.212C465.729 884.397 465.492 887.688 464.478 890.75C464.611 891.293 464.711 892.027 464.957 892.523C464.251 894.264 463.717 894.19 462.069 894.975C460.431 895.901 458.742 896.78 457.231 897.905L457.215 897.99C452.726 899.066 449.668 897.669 445.424 896.466C445.548 890.683 443.264 883.579 441.93 877.94L440.513 873.212L436.658 858.52L445.612 856.648L451.235 855.449Z"/>
	<path fill="#FDFEFE" d="M451.235 855.449L468.17 851.746L468.35 881.071L468.308 882.212C465.729 884.397 465.492 887.688 464.478 890.75C464.611 891.293 464.711 892.027 464.957 892.523C464.251 894.264 463.717 894.19 462.069 894.975C459.574 889.286 458.194 882.8 456.529 876.814C454.602 869.886 452.134 862.589 451.235 855.449Z"/>
	<path fill="#A4DDD7" d="M763.326 785.929L779.955 823.946C786.544 835.854 793.504 848.261 798.098 861.091L801.859 872.945L803.146 876.987L799.618 878.152C795.337 882.087 794.685 889.471 793.504 895C793.05 897.127 792.233 899.456 792.071 901.6L792.095 901.934C790.445 903.955 789.88 906.421 790.105 908.995C790.207 910.157 791.286 911.542 792.11 912.304L795.627 914.927C788.998 914.94 782.105 913.953 775.454 913.576L726.603 911.052L583.139 907.009L542.384 906.235C533.107 906.099 522.978 905.716 513.769 906.776L506 905.434C505.172 905.884 504.692 906.133 503.75 906.307L503.5 905C502.483 904.262 501.382 904.178 500.176 903.982L485 899.022C483.717 898.464 483.073 897.818 482.519 896.523L488.196 894.226C490.695 892.904 494.137 890.014 494.875 887.141C495.439 884.944 494.833 883.046 493.721 881.172L492.398 878.957C489.762 876.493 487.21 875.576 483.822 874.639L479.863 874.627L479.121 874.009C481.756 873.309 484.572 873.576 487.279 873.432L510.82 873.02L580.44 873.096C591.684 873.119 603.298 873.873 614.488 873.071C617.669 871.093 621.311 869.686 624.697 868.086L638.459 861.144L700.181 826.767L741.533 799.98C748.442 795.332 755.753 789.295 763.326 785.929Z"/>
	<path fill="#4CCBC9" d="M721.149 872.416L801.859 872.945L803.146 876.987L799.618 878.152C792.757 876.668 784.581 877.454 777.514 877.472L739.314 877.646L576.496 878.448L519.053 877.917L503.636 877.862C499.967 877.843 495.748 877.273 492.398 878.957C489.762 876.493 487.21 875.576 483.822 874.639L479.863 874.627L479.121 874.009C481.756 873.309 484.572 873.576 487.279 873.432L510.82 873.02L580.44 873.096C591.684 873.119 603.298 873.873 614.488 873.071C618.25 873.754 622.503 873.204 626.339 873.2L652.714 873.153L696.071 872.981C704.351 872.948 712.921 873.364 721.149 872.416Z"/>
	<path fill="#A4DDD7" d="M763.326 785.929L779.955 823.946C786.544 835.854 793.504 848.261 798.098 861.091L801.859 872.945L721.149 872.416C712.921 873.364 704.351 872.948 696.071 872.981L652.714 873.153L626.339 873.2C622.503 873.204 618.25 873.754 614.488 873.071C617.669 871.093 621.311 869.686 624.697 868.086L638.459 861.144L700.181 826.767L741.533 799.98C748.442 795.332 755.753 789.295 763.326 785.929Z"/>
	<path fill="#09C297" d="M721.149 872.416C719.015 869.738 718.237 867.315 718.6 863.863C719.338 856.841 723.77 850.806 729.253 846.631C734.367 842.736 741.812 840.405 748.219 841.345L748.823 841.44C751.195 835.639 753.785 830.985 758.976 827.25C766.052 822.159 771.783 822.67 779.955 823.946C786.544 835.854 793.504 848.261 798.098 861.091L801.859 872.945L721.149 872.416Z"/>
	<path fill="#CEEFEE" d="M790.097 172.654C791.848 171.664 793.884 172.028 795.821 171.75C798.478 171.368 801.153 170.535 803.792 169.991C825.847 165.449 847.452 162.475 870.027 163.498C879.706 163.937 889.694 164.957 899.046 167.59C911.267 171.032 922.19 178.246 928.517 189.5C939.628 209.264 936.983 234.192 930.986 255.205C924.577 277.666 914.829 299.098 902.898 319.152L889.526 339.626C900.552 334.817 914.304 333.63 925.739 338.028C935.524 341.792 943.086 348.047 947.355 357.851C948.831 361.24 949.577 364.585 950.048 368.25C951.996 383.418 946.268 397.998 939.952 411.498C934.114 423.98 927.414 435.465 920.048 447.082L886.518 495.195L876.75 507.483C874.827 509.747 869.243 514.495 868.502 517.134C876.187 516.739 882.905 518.176 888.693 523.538C893.842 528.308 897.077 535.057 897.244 542.086C897.353 546.656 896.203 550.921 895.716 555.401C902.461 555.408 909.484 554.776 916.184 555.346C918.043 555.504 919.276 555.551 920.75 556.855C922.045 558.001 922.6 559.398 922.582 561.094L922.559 562C922.206 562.304 921.932 562.739 921.5 562.913C920.98 563.123 919.488 562.945 918.824 562.955L911 563.032L866.586 563.077L860.335 563.466L833.872 599.67L801.991 637.53C798.579 641.474 793.667 648.907 789.215 651.251C786.176 643.682 782.438 636.317 778.871 628.983L753.385 582.063C747.706 572.735 740.997 563.695 735.827 554.116C738.906 547.354 741.299 540.659 743.073 533.433L746 534.34C746.963 533.3 746.767 530.502 746.88 529.016L748.199 516.396C750.251 502.069 753.726 488.435 757.069 474.392L760.421 459.616L764.749 446.049C765.939 442.281 766.873 438.386 768.911 434.971L769.111 435.006L775.848 429.45L780.1 426.322L780.752 425.118L781.165 425.008C783.383 422.837 785.744 420.876 786.842 417.897C788.63 413.041 786.995 406.137 784.863 401.607C781.716 396.996 778.301 392.497 775.997 387.386C773.022 380.784 771.587 373.418 769.693 366.449C766.223 353.677 762.626 342.4 756.539 330.621C754.633 329.697 752.517 329.465 750.446 329.159L749.052 329.334C748.745 320.026 749.88 311.212 751.243 302.026C749.858 300.631 746.858 300.334 745.006 299.701C742.404 298.812 739.9 297.755 737.507 296.389C731.149 292.76 727.506 288.26 722.141 283.612L721.373 282.957L720.962 282.225C715.894 275.804 714.659 269.418 713.185 261.645C711.209 261.842 708.961 262.08 707.01 261.701C702.707 260.867 700.275 258.538 697.906 255.007C699.164 253.742 699.953 253.073 700.255 251.25L700.028 250.887C699.342 249.39 699.316 245.2 699.78 243.69L700.012 243.002C700.294 242.146 700.631 241.438 701.25 240.755C702.793 239.053 703.916 239.256 706 239.258L706.745 239.75C708.543 239.77 709.114 240.089 710.498 238.869C711.849 239.915 713.161 242.754 714.122 244.257C717.331 236.807 721.588 230.877 726.258 224.29C729.378 222.872 732.784 221.428 735.615 219.503C741.977 215.176 744.472 209.72 745.829 202.398C748.725 205.858 751.25 209.525 754.75 212.441C761.221 217.83 771.407 219.693 779.506 220.697C786.375 221.549 793.755 220.907 800.693 220.934L801.379 224.436C806.516 218.54 807.374 210.775 806.95 203.256C806.224 190.396 799.446 180.873 790.097 172.654Z"/>
	<path fill="#F09C7D" d="M780.1 426.322C780.726 430.63 781.442 435.03 781.472 439.393C778.934 436.654 777.452 432.78 775.848 429.45L780.1 426.322Z"/>
	<path fill="#F09C7D" d="M756.539 330.621C765.321 333.635 777.075 337.053 781.643 346.017C784.159 350.953 784.452 357.411 784.847 362.848L785.577 389.06C785.583 392.49 786.138 397.189 785.426 400.475C785.309 401.014 785.14 401.198 784.863 401.607C781.716 396.996 778.301 392.497 775.997 387.386C773.022 380.784 771.587 373.418 769.693 366.449C766.223 353.677 762.626 342.4 756.539 330.621Z"/>
	<path fill="#FDFEFE" d="M868.502 517.134C876.187 516.739 882.905 518.176 888.693 523.538C893.842 528.308 897.077 535.057 897.244 542.086C897.353 546.656 896.203 550.921 895.716 555.401C902.461 555.408 909.484 554.776 916.184 555.346C918.043 555.504 919.276 555.551 920.75 556.855C922.045 558.001 922.6 559.398 922.582 561.094L922.559 562C922.206 562.304 921.932 562.739 921.5 562.913C920.98 563.123 919.488 562.945 918.824 562.955L911 563.032L866.586 563.077C861.375 562.646 855.847 563.009 850.599 563.018L813.236 563.449C808.076 563.482 802.255 563.968 797.17 563.349C795.961 563.202 795.64 562.992 794.731 562.25L794.517 560C794.843 559.549 795.293 558.829 795.75 558.47C796.739 557.694 798.539 557.474 799.755 557.302C805.458 556.496 811.839 557.138 817.596 557.43C817.359 552.675 816.944 548.221 819.011 543.785C820.822 539.898 823.728 537.04 827.814 535.59L828.5 535.358C831.182 534.417 833.927 534.313 836.75 534.489C842.747 534.862 846.492 539.862 850.137 544.015C849.905 538.571 850.275 533.603 853.039 528.799L853.503 528C856.635 522.498 862.65 519.041 868.502 517.134Z"/>
	<path fill="#E06552" d="M781.472 439.393C782.304 442.555 782.506 445.221 785.5 447.009C789.673 447.319 794.097 444.984 797.736 443.077C809.021 437.165 819.308 429.145 828.936 420.844C839.93 411.366 850.579 400.988 859.543 389.553C855.667 384.394 850.209 376.289 851.578 369.5C852.082 367.003 855.495 363.6 857.636 362.361C859.061 361.537 860.529 360.929 861.785 359.835C865.462 356.631 865.745 353.948 871.25 354.029C873.613 355.014 874.35 356.353 875.445 358.581C876.274 358.846 877.037 358.991 877.892 359.117C879.983 359.426 881.277 359.99 882.524 361.75C883.338 362.898 883.793 364.438 884.25 365.755C887.051 366.717 889.259 365.941 890.713 369.059C892.15 372.143 892.398 372.808 895.25 374.853C896.203 378.306 895.037 381.26 893.377 384.246C890.459 389.493 886.495 396.569 880.384 398.215C877.325 399.039 874.608 398.936 871.5 398.506L870.582 398.385L870.032 398.305C855.673 419.718 840.218 439.95 821.989 458.265C814.799 465.489 807.481 472.583 799.096 478.433C793.823 482.112 787.546 486.2 781.109 487.338C775.193 488.384 770.645 486.73 765.903 483.234C762.589 480.79 759.63 477.609 757.069 474.392L760.421 459.616L764.749 446.049C765.939 442.281 766.873 438.386 768.911 434.971L769.111 435.006L775.848 429.45C777.452 432.78 778.934 436.654 781.472 439.393Z"/>
	<path fill="#F09C7D" d="M726.258 224.29C729.378 222.872 732.784 221.428 735.615 219.503C741.977 215.176 744.472 209.72 745.829 202.398C748.725 205.858 751.25 209.525 754.75 212.441C761.221 217.83 771.407 219.693 779.506 220.697C786.375 221.549 793.755 220.907 800.693 220.934L801.379 224.436C802.619 247.246 802.295 273.509 786.167 291.745C781.882 296.589 776.23 299.917 770 301.526L769.104 301.764C765.76 302.602 762.209 302.638 758.779 302.497C756.87 302.419 752.758 301.345 751.243 302.026C749.858 300.631 746.858 300.334 745.006 299.701C742.404 298.812 739.9 297.755 737.507 296.389C731.149 292.76 727.506 288.26 722.141 283.612L721.373 282.957L720.962 282.225C715.894 275.804 714.659 269.418 713.185 261.645C711.209 261.842 708.961 262.08 707.01 261.701C702.707 260.867 700.275 258.538 697.906 255.007C699.164 253.742 699.953 253.073 700.255 251.25L700.028 250.887C699.342 249.39 699.316 245.2 699.78 243.69L700.012 243.002C700.294 242.146 700.631 241.438 701.25 240.755C702.793 239.053 703.916 239.256 706 239.258L706.745 239.75C708.543 239.77 709.114 240.089 710.498 238.869C711.849 239.915 713.161 242.754 714.122 244.257C717.331 236.807 721.588 230.877 726.258 224.29Z"/>
	<path fill="#D01E29" d="M777.171 256.25L778.75 256.1C779.999 257.053 780.575 257.479 781.159 259C781.131 260.449 781.147 261.679 780.443 263C779.494 264.781 778.078 265.417 776.25 266.01L774.071 265.87L774.016 265.06C775.873 264.103 777.189 263.402 778.499 261.75C778.899 259.485 778.013 258.986 777.352 256.899L777.171 256.25Z"/>
	<path fill="#0A2242" d="M788.04 225.639C790.317 225.776 792.831 225.774 794.944 226.716C796.446 227.387 797.301 228.209 797.941 229.75L797.25 230.379L793.132 228.799C789.58 227.94 786.928 229.114 783.5 229.564L783 228.75L783.145 228.327C784.021 226.601 786.34 226.098 788.04 225.639Z"/>
	<path fill="#0A2242" d="M749.96 225.689C751.874 225.618 755.39 225.514 757.108 226.286C758.224 226.788 758.314 227.524 758.75 228.57L758.402 229.326C755.278 228.547 752.41 228.504 749.213 228.514C746.535 228.859 744.066 229.637 741.5 230.435L740.806 229.75L741.25 228.597C744.068 226.794 746.667 226.158 749.96 225.689Z"/>
	<path fill="#0C0B0C" d="M787.24 238.25C788.008 238.11 788.146 238.053 789 238.061C790.669 238.075 792.163 239.131 793.124 240.42C794.202 241.865 794.886 244.112 794.43 245.906C793.853 248.182 791.56 249.27 789.665 250.25C788.326 250.365 787.237 250.338 785.949 249.893C784.494 249.391 783.295 248.319 782.736 246.865C782.223 245.529 782.249 243.497 782.829 242.18C783.778 240.029 785.101 239.078 787.24 238.25Z"/>
	<path fill="#0C0B0C" d="M748.178 238.75C749.136 238.485 750.257 238.392 751.25 238.442C752.954 238.528 754.607 239.531 755.612 240.884C756.732 242.389 757.084 244.332 756.66 246.146C756.165 248.261 754.984 249.274 753.25 250.448C752.023 250.811 750.757 251.13 749.484 250.832C747.733 250.421 746.359 249.383 745.446 247.835C744.624 246.442 744.351 244.633 744.779 243.067C745.352 240.97 746.307 239.799 748.178 238.75Z"/>
	<path fill="#FDFEFE" d="M755.445 272.804L781.164 273.566C780.095 276.448 779.107 278.836 777.271 281.337C776.148 282.273 774.986 283.207 773.642 283.811C771.215 284.902 767.525 284.909 765.102 283.829L764.5 283.54C759.609 281.224 757.544 277.507 755.445 272.804Z"/>
	<path fill="#CEEFEE" d="M645.451 494.03C648.262 495.11 652.478 500.084 654.278 502.52C660.904 510.809 666.977 517.867 676.549 522.834C679.003 524.107 681.89 525.601 684.646 525.976C686.427 526.218 688.814 526.239 690.25 525.011C691.219 524.184 691.731 523.295 691.856 522.075L690.379 520.75C691.435 520.595 691.979 520.756 693 521.003C696.56 520.017 699.165 516.165 702.056 514.035C704.679 514.861 706.972 516.079 709.382 517.37L713.018 519.759L714.214 520.675C723.492 524.927 733.344 530.496 743.073 533.433C741.299 540.659 738.906 547.354 735.827 554.116C740.997 563.695 747.706 572.735 753.385 582.063L778.871 628.983C782.438 636.317 786.176 643.682 789.215 651.251L793.654 662.868C796.396 670.923 799.397 679.072 800.916 687.463C802.448 695.929 802.317 705.262 802.608 713.878L804.226 752.455L806.883 806.49L810.303 832.008L813.704 851.834C814.116 853.824 814.327 856.459 815.089 858.311C809.594 859.681 803.791 861.075 798.098 861.091C793.504 848.261 786.544 835.854 779.955 823.946L763.326 785.929C755.753 789.295 748.442 795.332 741.533 799.98L700.181 826.767L638.459 861.144L624.697 868.086C621.311 869.686 617.669 871.093 614.488 873.071C603.298 873.873 591.684 873.119 580.44 873.096L510.82 873.02L487.279 873.432C484.572 873.576 481.756 873.309 479.121 874.009L479.863 874.627C478.038 875.46 476.64 875.997 475.442 877.653L475.226 878.313L474.772 878.346C472.346 878.572 470.274 879.613 468.35 881.071L468.17 851.746C468.509 849.416 468.185 846.7 468.143 844.328L469.515 700.562L469.471 696.385C469.687 680.548 464.212 663.284 459.379 648.314L457.642 641.611L460.544 640.126L468.431 635.908L470.953 638.355C472.933 639.889 474.897 641.367 477.5 641.41C479.991 639.281 480.827 637.038 481.718 633.943L481.28 633.75C480.851 631.758 481.887 630.086 482.992 628.413C484.563 626.037 488.435 621.439 491.317 620.808C493.021 621.132 494.74 621.528 496.473 621.635C499.479 622.51 502.756 622.949 505.863 623.314C539.171 630.856 570.676 639.898 598.522 660.609C599.105 660.973 598.739 660.859 599.668 660.652L634.917 577.978C629.33 572.592 624.902 562.564 623.502 554.987C621.865 546.127 622.51 538.127 624.23 529.358C627.771 515.5 635.056 503.738 645.451 494.03Z"/>
	<path fill="#FDFEFE" d="M457.642 641.611L460.544 640.126C462.378 641.495 463.416 642.213 465.74 642.274C466.581 642.296 466.193 642.236 467.097 642.644L459.379 648.314L457.642 641.611Z"/>
	<path fill="#682E3F" d="M481.718 633.943L481.28 633.75C480.851 631.758 481.887 630.086 482.992 628.413C484.563 626.037 488.435 621.439 491.317 620.808C493.021 621.132 494.74 621.528 496.473 621.635C499.479 622.51 502.756 622.949 505.863 623.314C539.171 630.856 570.676 639.898 598.522 660.609C594.507 661.895 591.981 666.956 590.042 670.578C588.447 673.56 587.305 676.723 586.507 680L586.259 680.986C583.426 692.537 586.264 705.186 589.427 716.303L481.718 633.943Z"/>
	<path fill="#410F1B" d="M634.917 577.978C637.049 579.516 638.343 581.636 639.933 583.695L647.64 593.41L666.852 615.945L684.206 633.36L692.725 641.247C693.83 642.268 695.571 643.525 696.219 644.865C681.659 663.536 666.366 681.079 648.643 696.857C639.907 704.633 630.841 712.058 620.742 718.021C616.66 720.431 611.988 723.511 607.221 724.137C600.65 725.001 594.361 719.988 589.427 716.303C586.264 705.186 583.426 692.537 586.259 680.986L586.507 680C587.305 676.723 588.447 673.56 590.042 670.578C591.981 666.956 594.507 661.895 598.522 660.609C599.105 660.973 598.739 660.859 599.668 660.652L634.917 577.978Z"/>
	<path fill="#240708" d="M599.196 662.75L599.805 663.023C599.028 667.498 598.051 674.41 595.25 678.041L594.892 678.069L594.44 677.5C595.236 672.169 596.695 667.516 599.196 662.75Z"/>
	<path fill="#B9E8E3" d="M468.143 844.328L469.049 846.321C473.75 845.707 478.502 843.901 483 842.436L503.952 835.585C546.05 821.769 587.949 805.761 628.152 787.06L684 758.567L722.558 736.475C731.289 731.138 739.894 725.12 748.997 720.447C750.249 719.804 751.5 719.539 752.88 719.331C752.16 723.515 751.18 727.909 751.068 732.154C750.602 749.951 757.215 769.391 763.326 785.929C755.753 789.295 748.442 795.332 741.533 799.98L700.181 826.767L638.459 861.144L624.697 868.086C621.311 869.686 617.669 871.093 614.488 873.071C603.298 873.873 591.684 873.119 580.44 873.096L510.82 873.02L487.279 873.432C484.572 873.576 481.756 873.309 479.121 874.009L479.863 874.627C478.038 875.46 476.64 875.997 475.442 877.653L475.226 878.313L474.772 878.346C472.346 878.572 470.274 879.613 468.35 881.071L468.17 851.746C468.509 849.416 468.185 846.7 468.143 844.328Z"/>
	<path fill="#0FAEAB" d="M475.442 877.653C474.734 877.421 472.588 877.907 471.75 877.995C470.837 877.063 470.532 876.189 470.054 875L470.444 874.434C473.049 873.638 476.395 874.011 479.121 874.009L479.863 874.627C478.038 875.46 476.64 875.997 475.442 877.653Z"/>
	<path fill="#682E3F" d="M645.451 494.03C648.262 495.11 652.478 500.084 654.278 502.52C660.904 510.809 666.977 517.867 676.549 522.834C679.003 524.107 681.89 525.601 684.646 525.976C686.427 526.218 688.814 526.239 690.25 525.011C691.219 524.184 691.731 523.295 691.856 522.075L690.379 520.75C691.435 520.595 691.979 520.756 693 521.003C696.56 520.017 699.165 516.165 702.056 514.035C704.679 514.861 706.972 516.079 709.382 517.37L713.018 519.759L714.214 520.675C723.492 524.927 733.344 530.496 743.073 533.433C741.299 540.659 738.906 547.354 735.827 554.116C740.997 563.695 747.706 572.735 753.385 582.063L778.871 628.983C782.438 636.317 786.176 643.682 789.215 651.251L793.654 662.868C796.396 670.923 799.397 679.072 800.916 687.463C802.448 695.929 802.317 705.262 802.608 713.878L804.226 752.455L806.883 806.49L810.303 832.008L813.704 851.834C814.116 853.824 814.327 856.459 815.089 858.311C809.594 859.681 803.791 861.075 798.098 861.091C793.504 848.261 786.544 835.854 779.955 823.946L763.326 785.929C757.215 769.391 750.602 749.951 751.068 732.154C751.18 727.909 752.16 723.515 752.88 719.331C754.585 710.395 754.516 701.449 754.53 692.391C752.87 691.863 751.757 690.835 750.432 689.737L708.792 656.489C704.54 652.773 699.944 649.096 696.219 644.865C695.571 643.525 693.83 642.268 692.725 641.247L684.206 633.36L666.852 615.945L647.64 593.41L639.933 583.695C638.343 581.636 637.049 579.516 634.917 577.978C629.33 572.592 624.902 562.564 623.502 554.987C621.865 546.127 622.51 538.127 624.23 529.358C627.771 515.5 635.056 503.738 645.451 494.03Z"/>
	<path fill="#0C0B0C" d="M750.432 689.737C754.415 687.922 762.373 690.85 766.641 691.671C769.364 692.43 774.759 693.13 776.907 694.75L776.5 695.513C769.339 696.269 761.558 693.667 754.53 692.391C752.87 691.863 751.757 690.835 750.432 689.737Z"/>
	<path fill="#410F1B" d="M714.214 520.675C723.492 524.927 733.344 530.496 743.073 533.433C741.299 540.659 738.906 547.354 735.827 554.116C730.988 548.839 727.217 541.661 723.378 535.632C720.307 530.808 716.511 525.901 714.214 520.675Z"/>
	<path fill="#57202F" d="M645.451 494.03C648.262 495.11 652.478 500.084 654.278 502.52C648.865 507.563 646.732 514.96 646.479 522.17C646.297 527.367 646.359 532.379 647.376 537.5C650.784 554.655 661.618 569.948 671.936 583.722L702.338 620.881L736.358 659.146C746.353 669.784 757.921 679.998 766.641 691.671C762.373 690.85 754.415 687.922 750.432 689.737L708.792 656.489C704.54 652.773 699.944 649.096 696.219 644.865C695.571 643.525 693.83 642.268 692.725 641.247L684.206 633.36L666.852 615.945L647.64 593.41L639.933 583.695C638.343 581.636 637.049 579.516 634.917 577.978C629.33 572.592 624.902 562.564 623.502 554.987C621.865 546.127 622.51 538.127 624.23 529.358C627.771 515.5 635.056 503.738 645.451 494.03Z"/>
	<path fill="#CEEFEE" d="M486.422 128.232L510.445 116.792L553.062 98.5137C581.176 87.7007 611.06 80.0242 640.806 75.3365C676.626 69.6916 716.077 67.2321 750.403 81.25C764.779 87.1208 779.838 97.1298 785.966 111.966C792.001 126.576 789.632 142.641 783.619 156.824C782.342 159.836 780.456 163.014 779.633 166.149L790.097 172.654C799.446 180.873 806.224 190.396 806.95 203.256C807.374 210.775 806.516 218.54 801.379 224.436L800.693 220.934C793.755 220.907 786.375 221.549 779.506 220.697C771.407 219.693 761.221 217.83 754.75 212.441C751.25 209.525 748.725 205.858 745.829 202.398C744.472 209.72 741.977 215.176 735.615 219.503C732.784 221.428 729.378 222.872 726.258 224.29C721.588 230.877 717.331 236.807 714.122 244.257C713.161 242.754 711.849 239.915 710.498 238.869C709.114 240.089 708.543 239.77 706.745 239.75L706 239.258C703.916 239.256 702.793 239.053 701.25 240.755C700.631 241.438 700.294 242.146 700.012 243.002L699.78 243.69C699.316 245.2 699.342 249.39 700.028 250.887L700.255 251.25C699.953 253.073 699.164 253.742 697.906 255.007C700.275 258.538 702.707 260.867 707.01 261.701C708.961 262.08 711.209 261.842 713.185 261.645C714.659 269.418 715.894 275.804 720.962 282.225L721.373 282.957L722.141 283.612C727.506 288.26 731.149 292.76 737.507 296.389C739.9 297.755 742.404 298.812 745.006 299.701C746.858 300.334 749.858 300.631 751.243 302.026C749.88 311.212 748.745 320.026 749.052 329.334L750.446 329.159C752.517 329.465 754.633 329.697 756.539 330.621C762.626 342.4 766.223 353.677 769.693 366.449C771.587 373.418 773.022 380.784 775.997 387.386C778.301 392.497 781.716 396.996 784.863 401.607C786.995 406.137 788.63 413.041 786.842 417.897C785.744 420.876 783.383 422.837 781.165 425.008L780.752 425.118L780.1 426.322L775.848 429.45L769.111 435.006L768.911 434.971C766.873 438.386 765.939 442.281 764.749 446.049L760.421 459.616L757.069 474.392C753.726 488.435 750.251 502.069 748.199 516.396L746.88 529.016C746.767 530.502 746.963 533.3 746 534.34L743.073 533.433C733.344 530.496 723.492 524.927 714.214 520.675L713.018 519.759L709.382 517.37C706.972 516.079 704.679 514.861 702.056 514.035C699.165 516.165 696.56 520.017 693 521.003C691.979 520.756 691.435 520.595 690.379 520.75L691.856 522.075C691.731 523.295 691.219 524.184 690.25 525.011C688.814 526.239 686.427 526.218 684.646 525.976C681.89 525.601 679.003 524.107 676.549 522.834C666.977 517.867 660.904 510.809 654.278 502.52C652.478 500.084 648.262 495.11 645.451 494.03C635.056 503.738 627.771 515.5 624.23 529.358C622.51 538.127 621.865 546.127 623.502 554.987C624.902 562.564 629.33 572.592 634.917 577.978L599.668 660.652C598.739 660.859 599.105 660.973 598.522 660.609C570.676 639.898 539.171 630.856 505.863 623.314C502.756 622.949 499.479 622.51 496.473 621.635C494.74 621.528 493.021 621.132 491.317 620.808C488.435 621.439 484.563 626.037 482.992 628.413C481.887 630.086 480.851 631.758 481.28 633.75L481.718 633.943C480.827 637.038 479.991 639.281 477.5 641.41C474.897 641.367 472.933 639.889 470.953 638.355L468.431 635.908L460.544 640.126L457.642 641.611L449.286 611.022L438.341 574.257L434.763 561.823L431.384 550.078L425.506 529.576C427.689 528.646 435.933 526.481 436.859 524.891L432.153 513.604L427.548 497.917C423.009 479.322 423.075 457.879 428.141 439.392C429.187 435.577 430.307 431.278 432.38 427.89C433.672 423.32 437.402 418.15 439.671 413.888C442.203 409.135 444.302 404.048 447.11 399.468C451.561 399.071 456.382 397.448 460.742 396.358L481.948 391.138L487.481 388.774C487.418 384.536 486.26 379.859 485.633 375.647C482.722 356.095 479.063 336.102 471.112 317.904L469.587 313.084C465.586 302.547 441.538 289.248 431.697 284.668C429.228 283.572 426.559 283.12 423.912 282.678L423.082 282L422.502 273.454L421.966 261.529L425.085 261.767L425.991 261.866C432.901 262.484 440.71 260.219 445.971 255.716C457.276 246.04 459.46 228.626 460.621 214.75L462.172 190.415L462.489 184.069L462.931 176.033L463.142 163.242C467.409 162.469 472.474 160.25 475.73 157.44C483.673 150.583 485.475 138.035 486.422 128.232Z"/>
	<path fill="#B9E8E3" d="M581.861 571.248C580.788 576.269 550.206 597.826 544.354 601.611C538.459 605.424 532.495 609.154 526.252 612.375L508.21 621.142C507.119 621.728 506.499 622.213 505.863 623.314C502.756 622.949 499.479 622.51 496.473 621.635L496.676 621.246L496 621L495.245 620.75C499.852 618.21 504.711 616.626 509.5 614.486L528.556 605.225C540.658 598.984 552.744 592.123 563.949 584.37L581.861 571.248Z"/>
	<path fill="#D01E29" d="M449.286 611.022L461.968 599.75C466.946 595.587 471.595 590.909 478.5 590.644C481.773 590.518 483.783 592.242 486.062 594.335C486.979 598.269 487.052 602.106 487.137 606.131L487.523 608.75C490.996 610.895 493.976 612.55 496.986 615.377L491.317 620.808C488.435 621.439 484.563 626.037 482.992 628.413C481.887 630.086 480.851 631.758 481.28 633.75L481.718 633.943C480.827 637.038 479.991 639.281 477.5 641.41C474.897 641.367 472.933 639.889 470.953 638.355L468.431 635.908L460.544 640.126L457.642 641.611L449.286 611.022Z"/>
	<path fill="#E06552" d="M487.137 606.131L487.523 608.75C490.996 610.895 493.976 612.55 496.986 615.377L491.317 620.808C488.435 621.439 484.563 626.037 482.992 628.413C481.887 630.086 480.851 631.758 481.28 633.75L481.718 633.943C480.827 637.038 479.991 639.281 477.5 641.41C474.897 641.367 472.933 639.889 470.953 638.355L468.431 635.908C468.675 632.94 468.073 629.837 468.799 626.93C471.1 617.722 479.842 613.72 487.245 609.25C486.815 608.133 487.019 607.295 487.137 606.131Z"/>
	<path fill="#0A2242" d="M541.455 246.073C542.867 244.028 543.72 241.666 544.926 239.5C547.57 234.753 550.855 231.432 556.015 229.47C567.373 225.154 574.399 233.391 582.078 240.098C586.154 243.658 590.374 246.955 595.343 249.188C600.165 251.354 605.297 251.735 610.488 251.14C631.486 248.734 635.006 228.913 647.227 215.753C656.199 206.092 666.827 200.224 679.085 195.699C679.151 198.269 677.073 202.003 676.564 204.778L675.502 211.813C677.087 214.743 679.225 217.267 681.898 219.266C691.056 226.113 705.282 227.774 716.358 226.295C719.559 225.868 722.646 224.824 725.846 224.348L726.258 224.29C721.588 230.877 717.331 236.807 714.122 244.257C713.161 242.754 711.849 239.915 710.498 238.869C709.114 240.089 708.543 239.77 706.745 239.75L706 239.258C703.916 239.256 702.793 239.053 701.25 240.755C700.631 241.438 700.294 242.146 700.012 243.002L699.78 243.69C699.316 245.2 699.342 249.39 700.028 250.887L700.255 251.25C699.953 253.073 699.164 253.742 697.906 255.007C700.275 258.538 702.707 260.867 707.01 261.701C708.961 262.08 711.209 261.842 713.185 261.645C714.659 269.418 715.894 275.804 720.962 282.225L712.258 277.388C693.561 265.607 680.786 247.536 675.879 226.009L675.432 225.961C672.133 227.388 668.625 228.835 665.805 231.109C660.227 235.608 657.89 242.509 654.956 248.75C652.134 254.754 648.585 260.932 644.016 265.785C636.194 274.092 626.049 277.628 614.75 277.803C601.298 278.012 589.598 272.514 581.25 261.968C576.882 256.45 573.123 250.54 567.955 245.69C564.323 242.283 561.27 239.689 556 239.981C550.219 240.3 546.318 245.185 542.689 249.093L541.455 246.073Z"/>
	<path fill="#F69F4C" d="M697.906 255.007C696.475 252.328 695.469 249.65 695.433 246.584C695.393 243.142 696.473 238.474 699.089 236.019C700.491 234.704 702.114 234.345 704 234.496C706.901 234.728 708.68 236.84 710.498 238.869C709.114 240.089 708.543 239.77 706.745 239.75L706 239.258C703.916 239.256 702.793 239.053 701.25 240.755C700.631 241.438 700.294 242.146 700.012 243.002L699.78 243.69C699.316 245.2 699.342 249.39 700.028 250.887L700.255 251.25C699.953 253.073 699.164 253.742 697.906 255.007Z"/>
	<path fill="#DC554C" d="M485.27 402.596L504.846 375.578C509.929 368.862 515.896 362.399 520.075 355.083C520.211 354.845 521.008 353.553 521.014 353.382C521.024 353.055 519.979 351.475 519.734 350.997C518.768 349.119 517.863 347.073 517.381 345.012C516.31 340.439 519.26 336.468 521.39 332.697C523.267 329.375 525.146 325.845 526.146 322.141C526.943 319.187 526.702 313.214 528.307 310.906C528.76 310.255 529.216 310.205 529.953 310.097C531.731 309.836 533.827 310.665 535.25 311.689C538.503 314.03 538.399 317.627 538.993 321.286C540.605 319.636 542.958 317.065 545.389 316.931C546.864 316.85 547.007 317.003 548.021 317.937C548.549 318.682 549.019 319.353 549.427 320.173L549.896 321.22C551.48 321.13 554.083 320.619 555.452 321.479C556.602 322.263 557.525 322.78 557.814 324.25C558.057 325.483 558.101 327.135 558.051 328.393C561.092 328.706 563.325 328.563 565.523 330.948C566.623 332.688 566.477 332.953 566.36 334.926C566.789 335.545 566.962 336.072 567.669 336.364C569.151 336.977 570.961 338.024 571.431 339.703C572.268 342.694 569.993 346.566 568.25 348.816C564.487 353.676 559.018 358.258 553.5 360.964C551.981 361.709 547.25 362.729 546.49 363.523C545.742 364.305 544.876 366.868 544.381 367.919L536.532 385.569L510.138 441.574C505.137 451.258 500.103 461.676 493.204 470.139C490.506 473.449 487.072 476.493 483.168 478.284L480.902 479.247C474.972 481.648 468.299 481.83 462.412 479.288C448.454 473.261 445.593 460.948 440.543 448L432.38 427.89C433.672 423.32 437.402 418.15 439.671 413.888C442.203 409.135 444.302 404.048 447.11 399.468C451.561 399.071 456.382 397.448 460.742 396.358L481.948 391.138L485.27 402.596Z"/>
	<path fill="#B03A3A" d="M548.021 317.937C548.549 318.682 549.019 319.353 549.427 320.173L549.896 321.22C551.48 321.13 554.083 320.619 555.452 321.479C556.602 322.263 557.525 322.78 557.814 324.25C558.057 325.483 558.101 327.135 558.051 328.393C561.092 328.706 563.325 328.563 565.523 330.948C566.623 332.688 566.477 332.953 566.36 334.926C564.023 338.677 560.548 341.851 557.932 345.489L557.815 345.513C556.515 347.991 555.235 350.186 553.49 352.391L542.894 352.916C542.737 352.92 541.459 352.957 541.454 352.954C540.791 352.647 540.034 346.882 539.556 345.832C539.301 345.271 536.83 344.27 536.25 343.912C534.238 342.671 532.468 341.09 530.756 339.473C531.574 337.786 532.418 335.761 533.555 334.265C535.403 331.834 537.992 329.808 540.07 327.554C541.9 325.569 544.415 320.426 546.883 319.466L547.5 319.255L548.021 317.937Z"/>
	<path fill="#DC554C" d="M558.051 328.393C561.092 328.706 563.325 328.563 565.523 330.948C562.854 332.63 560.604 337.968 558.852 340.668C558.157 341.738 556.632 343.491 556.322 344.659L554.726 346.493C553.275 348.119 552.506 348.824 550.25 348.945C548.462 347.357 547.149 345.868 545.856 343.856C547.496 339.97 550.258 336.864 552.899 333.63C554.474 331.566 555.801 329.79 558.051 328.393Z"/>
	<path fill="#DC554C" d="M549.427 320.173L549.896 321.22C551.48 321.13 554.083 320.619 555.452 321.479C556.602 322.263 557.525 322.78 557.814 324.25C558.057 325.483 558.101 327.135 558.051 328.393C555.801 329.79 554.474 331.566 552.899 333.63L551.91 332.045L543.831 342.01C541.748 341.089 539.703 340.365 538.054 338.75L538.115 336.25C538.905 330.867 545.096 323.272 549.427 320.173Z"/>
	<path fill="#D01E29" d="M555.452 321.479C556.602 322.263 557.525 322.78 557.814 324.25C558.057 325.483 558.101 327.135 558.051 328.393C555.801 329.79 554.474 331.566 552.899 333.63L551.91 332.045C552.694 330.459 553.393 328.935 553.804 327.205C554.263 325.275 554.016 322.826 555.452 321.479Z"/>
	<path fill="#B03A3A" d="M447.11 399.468C451.561 399.071 456.382 397.448 460.742 396.358L481.948 391.138L485.27 402.596L485.053 402.995C480.055 412.016 473.781 420.584 468.492 429.5C464.156 436.811 460.016 443.663 458.936 452.25L458.813 453.163C458.15 458.507 459.682 464.145 463.138 468.315C466.805 472.738 472.037 475.957 477.75 476.888C479.628 477.194 481.034 477.008 482.725 478.038L483.168 478.284L480.902 479.247C474.972 481.648 468.299 481.83 462.412 479.288C448.454 473.261 445.593 460.948 440.543 448L432.38 427.89C433.672 423.32 437.402 418.15 439.671 413.888C442.203 409.135 444.302 404.048 447.11 399.468Z"/>
	<path fill="#1A4268" d="M541.455 246.073C540.007 241.552 539.325 236.17 539.658 231.415C540.418 220.596 544.164 211.438 552.52 204.311C563.483 194.961 574.086 195.653 587.233 199.372C590.715 200.358 594.459 201.702 598.086 201.881C601.953 202.071 605.65 200.738 608.596 198.25C619.76 188.821 616.348 173.151 621.557 161C623.56 156.326 626.913 152.575 630.691 149.255C641.921 139.386 654.799 134.983 669.703 136.058C679.334 136.753 689.547 142.616 695.862 149.815C698.106 152.374 699.676 155.353 701.942 157.899L702.324 158.32C706.571 158.764 710.663 160.398 714.585 162.005C736.692 155.392 758.625 155.79 779.633 166.149L790.097 172.654C799.446 180.873 806.224 190.396 806.95 203.256C807.374 210.775 806.516 218.54 801.379 224.436L800.693 220.934C793.755 220.907 786.375 221.549 779.506 220.697C771.407 219.693 761.221 217.83 754.75 212.441C751.25 209.525 748.725 205.858 745.829 202.398C744.472 209.72 741.977 215.176 735.615 219.503C732.784 221.428 729.378 222.872 726.258 224.29L725.846 224.348C722.646 224.824 719.559 225.868 716.358 226.295C705.282 227.774 691.056 226.113 681.898 219.266C679.225 217.267 677.087 214.743 675.502 211.813L676.564 204.778C677.073 202.003 679.151 198.269 679.085 195.699C666.827 200.224 656.199 206.092 647.227 215.753C635.006 228.913 631.486 248.734 610.488 251.14C605.297 251.735 600.165 251.354 595.343 249.188C590.374 246.955 586.154 243.658 582.078 240.098C574.399 233.391 567.373 225.154 556.015 229.47C550.855 231.432 547.57 234.753 544.926 239.5C543.72 241.666 542.867 244.028 541.455 246.073Z"/>
	<path fill="#E06552" d="M745.829 202.398C745.272 196.21 743.666 190.359 742.448 184.3C745.083 188.62 747.034 193.318 749.622 197.674C755.177 207.022 763.582 213.222 774.188 215.772L782.938 217.188C788.807 217.988 794.572 216.801 800.31 217.25C800.618 218.529 800.667 219.629 800.693 220.934C793.755 220.907 786.375 221.549 779.506 220.697C771.407 219.693 761.221 217.83 754.75 212.441C751.25 209.525 748.725 205.858 745.829 202.398Z"/>
	<path fill="#F69F4C" d="M702.324 158.32C706.571 158.764 710.663 160.398 714.585 162.005C699.839 167.063 691.272 176.867 682.222 188.915L681.586 186.583C679.985 180.612 680.006 174.627 682.871 168.995C685.535 163.759 690.01 159.585 696.091 159.121C697.857 158.986 699.979 159.179 701.65 158.579L702.324 158.32Z"/>
	<path fill="#F09C7D" d="M645.451 494.03C639.934 489.199 633.184 485.028 627.311 480.529L590.576 451.029C575.21 438.017 560.569 425.36 550.223 407.775C572.576 385.748 600.056 369.639 626.948 353.798L660.454 335.733C664.938 333.588 669.384 331.273 674.053 329.55C680.053 327.336 686.227 326.022 692.558 325.256L701.876 356.888C702.966 361.389 704.567 366.453 703.699 371.068L703.558 371.839C702.277 378.367 698.692 385.066 695.135 390.628C689.83 397.276 684.413 403.075 676.033 405.566L675.409 405.755L675.032 405.861C672.896 406.19 670.835 406.508 668.667 406.537L678.162 453.761L657.265 475.84L663.162 481.987L663.766 481.877C667.805 481.186 671.585 481.897 675.511 482.878C684.368 485.888 692.777 490.02 699.973 496.071C702.275 498.006 704.861 500.3 706.219 503.024C707.059 504.708 706.13 506.318 706.343 507.996C705.169 507.842 704.025 507.649 702.837 507.75C703.398 509.822 705.397 509.062 703.758 511.823C703.271 512.643 702.701 513.334 702.056 514.035C699.165 516.165 696.56 520.017 693 521.003C691.979 520.756 691.435 520.595 690.379 520.75L691.856 522.075C691.731 523.295 691.219 524.184 690.25 525.011C688.814 526.239 686.427 526.218 684.646 525.976C681.89 525.601 679.003 524.107 676.549 522.834C666.977 517.867 660.904 510.809 654.278 502.52C652.478 500.084 648.262 495.11 645.451 494.03Z"/>
	<path fill="#DC554C" d="M656.65 385.791C656.713 385.48 657.006 384.761 657.25 384.569C659.613 382.705 663.65 381.549 666.388 380.065C670.454 377.862 674.239 375.237 678.009 372.57C678.663 374.918 676.311 380.57 675.375 382.914C671.914 385.812 668.838 388.336 664.366 389.487L663.416 382.936L656.65 385.791Z"/>
	<path fill="#E06552" d="M664.366 389.487C668.838 388.336 671.914 385.812 675.375 382.914C674.47 390.441 674.918 398.293 675.032 405.861C672.896 406.19 670.835 406.508 668.667 406.537L664.366 389.487Z"/>
	<path fill="#CEEFEE" d="M656.65 385.791L663.416 382.936L664.366 389.487L668.667 406.537L678.162 453.761L657.265 475.84L596.013 413.326L655.95 386.212L656.65 385.791Z"/>
	<path fill="#4CCBC9" d="M721.373 282.957L722.141 283.612C727.506 288.26 731.149 292.76 737.507 296.389C739.9 297.755 742.404 298.812 745.006 299.701C746.858 300.334 749.858 300.631 751.243 302.026C749.88 311.212 748.745 320.026 749.052 329.334L750.446 329.159C752.517 329.465 754.633 329.697 756.539 330.621C762.626 342.4 766.223 353.677 769.693 366.449C771.587 373.418 773.022 380.784 775.997 387.386C778.301 392.497 781.716 396.996 784.863 401.607C786.995 406.137 788.63 413.041 786.842 417.897C785.744 420.876 783.383 422.837 781.165 425.008L780.752 425.118L780.1 426.322L775.848 429.45L769.111 435.006L768.911 434.971C766.873 438.386 765.939 442.281 764.749 446.049L760.421 459.616L757.069 474.392C753.726 488.435 750.251 502.069 748.199 516.396L746.88 529.016C746.767 530.502 746.963 533.3 746 534.34L743.073 533.433C733.344 530.496 723.492 524.927 714.214 520.675L713.018 519.759L709.382 517.37C706.972 516.079 704.679 514.861 702.056 514.035C702.701 513.334 703.271 512.643 703.758 511.823C705.397 509.062 703.398 509.822 702.837 507.75C704.025 507.649 705.169 507.842 706.343 507.996C706.13 506.318 707.059 504.708 706.219 503.024C704.861 500.3 702.275 498.006 699.973 496.071C692.777 490.02 684.368 485.888 675.511 482.878C671.585 481.897 667.805 481.186 663.766 481.877L663.162 481.987L657.265 475.84L678.162 453.761L668.667 406.537C670.835 406.508 672.896 406.19 675.032 405.861L675.409 405.755L676.033 405.566C684.413 403.075 689.83 397.276 695.135 390.628C698.692 385.066 702.277 378.367 703.558 371.839L703.699 371.068C704.567 366.453 702.966 361.389 701.876 356.888L692.558 325.256L696.806 324.933L713.102 324.745C717.794 315.777 718.601 305.186 720.496 295.42C720.665 291.275 720.68 287.053 721.373 282.957Z"/>
	<path fill="#0FAEAB" d="M768.911 434.971C762.986 434.827 757.093 435.432 751.165 435.489C742.449 435.573 733.526 434.82 724.906 433.548C717.105 432.397 709.725 430.79 702.975 426.512C701.638 425.665 697.178 422.867 696.858 421.466C712.932 421.302 728.843 425.509 744.977 425.943L755.469 425.925L773.5 425.011C775.737 424.881 778.736 423.98 780.752 425.118L780.1 426.322L775.848 429.45L769.111 435.006L768.911 434.971Z"/>
	<path fill="#0FAEAB" d="M695.135 390.628C694.92 393.618 693.901 395.969 693.191 398.8L689.958 413.484L680.021 466.077C678.952 471.112 678.229 478.6 675.511 482.878C671.585 481.897 667.805 481.186 663.766 481.877L663.162 481.987L657.265 475.84L678.162 453.761L668.667 406.537C670.835 406.508 672.896 406.19 675.032 405.861L675.409 405.755L676.033 405.566C684.413 403.075 689.83 397.276 695.135 390.628Z"/>
	<path fill="#0FAEAB" d="M713.018 519.759C716.553 513.061 721.539 506.766 726.204 500.812L750.43 471.551C753.738 467.59 756.403 462.877 760.421 459.616L757.069 474.392C753.726 488.435 750.251 502.069 748.199 516.396L746.88 529.016C746.767 530.502 746.963 533.3 746 534.34L743.073 533.433C733.344 530.496 723.492 524.927 714.214 520.675L713.018 519.759Z"/>
	<path fill="#F09C7D" d="M721.373 282.957L722.141 283.612C727.506 288.26 731.149 292.76 737.507 296.389C739.9 297.755 742.404 298.812 745.006 299.701C746.858 300.334 749.858 300.631 751.243 302.026C749.88 311.212 748.745 320.026 749.052 329.334L750.446 329.159C754.23 336.695 757.12 344.747 759.736 352.747C761.835 359.167 765.001 367.253 762.855 374C761.505 378.244 759.42 381.204 755.301 383.157C747.918 386.659 738.038 384.513 730.678 381.867C714.668 376.111 710.668 364.137 705.828 349.338C703.155 341.165 700.45 332.723 696.806 324.933L713.102 324.745C717.794 315.777 718.601 305.186 720.496 295.42C720.665 291.275 720.68 287.053 721.373 282.957Z"/>
	<path fill="#DC554C" d="M721.373 282.957L722.141 283.612C727.506 288.26 731.149 292.76 737.507 296.389C739.9 297.755 742.404 298.812 745.006 299.701C746.858 300.334 749.858 300.631 751.243 302.026C749.88 311.212 748.745 320.026 749.052 329.334L749.006 333.75L748.25 333.901C737.634 326.22 730.126 316.811 724.491 305.022C723.13 302.173 722.43 298.766 720.909 296.109L720.496 295.42C720.665 291.275 720.68 287.053 721.373 282.957Z"/>
</svg>
