<svg width="2410" height="303" xmlns="http://www.w3.org/2000/svg" xmlns:xlink="http://www.w3.org/1999/xlink" xml:space="preserve" overflow="hidden"><g transform="translate(-407 -389)"><g><path d="M818.27 568.202C813.4 568.202 809.175 568.614 805.594 569.437 802.013 570.261 799.041 571.478 796.678 573.09 794.315 574.701 792.578 576.635 791.468 578.89 790.358 581.146 789.803 583.742 789.803 586.679 789.803 591.692 791.396 595.684 794.583 598.656 797.77 601.628 802.228 603.114 807.957 603.114 812.612 603.114 816.927 601.932 820.902 599.569 824.876 597.206 829.048 593.589 833.416 588.72L833.416 568.202ZM1707.79 525.985C1705.49 525.985 1703.22 526.307 1700.98 526.952 1698.75 527.596 1696.48 528.671 1694.17 530.175 1691.87 531.679 1689.47 533.612 1686.99 535.975 1684.5 538.339 1681.85 541.311 1679.04 544.891L1679.04 583.456C1683.94 589.4 1688.63 593.93 1693.09 597.045 1697.56 600.16 1702.21 601.718 1707.04 601.718 1711.5 601.718 1715.32 600.643 1718.49 598.495 1721.66 596.346 1724.24 593.5 1726.22 589.955 1728.2 586.41 1729.64 582.435 1730.54 578.031 1731.44 573.627 1731.89 569.169 1731.89 564.657 1731.89 559.716 1731.52 554.917 1730.76 550.263 1730 545.608 1728.69 541.49 1726.81 537.909 1724.94 534.328 1722.45 531.446 1719.36 529.262 1716.26 527.077 1712.4 525.985 1707.79 525.985ZM1098.56 524.589C1094.16 524.589 1090.31 525.412 1086.99 527.059 1083.68 528.707 1080.9 530.891 1078.67 533.612 1076.43 536.333 1074.71 539.502 1073.48 543.119 1072.26 546.735 1071.57 550.513 1071.43 554.452L1124.17 554.452C1124.39 545.142 1122.31 537.837 1117.96 532.538 1113.6 527.238 1107.13 524.589 1098.56 524.589ZM707.827 524.589C703.432 524.589 699.577 525.412 696.263 527.059 692.948 528.707 690.174 530.891 687.94 533.612 685.706 536.333 683.977 539.502 682.752 543.119 681.527 546.735 680.843 550.513 680.698 554.452L733.442 554.452C733.657 545.142 731.585 537.837 727.227 532.538 722.869 527.238 716.402 524.589 707.827 524.589ZM1553.97 512.235C1555.69 512.235 1557.12 512.289 1558.26 512.396 1559.41 512.504 1560.32 512.719 1561 513.041 1561.68 513.363 1562.17 513.721 1562.45 514.115 1562.74 514.509 1562.88 514.992 1562.88 515.565L1562.88 571.854C1562.88 577.512 1563.3 582.042 1564.12 585.443 1564.94 588.845 1566.2 591.745 1567.88 594.144 1569.56 596.543 1571.69 598.405 1574.27 599.73 1576.85 601.055 1579.86 601.718 1583.29 601.718 1587.73 601.718 1592.16 600.142 1596.56 596.991 1600.96 593.84 1605.64 589.221 1610.58 583.134L1610.58 515.565C1610.58 514.992 1610.7 514.509 1610.95 514.115 1611.21 513.721 1611.69 513.363 1612.41 513.041 1613.12 512.719 1614.03 512.504 1615.14 512.396 1616.25 512.289 1617.7 512.235 1619.49 512.235 1621.21 512.235 1622.65 512.289 1623.79 512.396 1624.94 512.504 1625.83 512.719 1626.48 513.041 1627.12 513.363 1627.61 513.721 1627.93 514.115 1628.25 514.509 1628.41 514.992 1628.41 515.565L1628.41 612.245C1628.41 612.818 1628.29 613.301 1628.04 613.695 1627.78 614.089 1627.34 614.429 1626.69 614.716 1626.05 615.002 1625.21 615.217 1624.17 615.36 1623.13 615.503 1621.86 615.575 1620.35 615.575 1618.71 615.575 1617.36 615.503 1616.33 615.36 1615.29 615.217 1614.46 615.002 1613.86 614.716 1613.25 614.429 1612.83 614.089 1612.62 613.695 1612.41 613.301 1612.3 612.818 1612.3 612.245L1612.3 599.462C1606.78 605.549 1601.34 609.989 1595.97 612.782 1590.6 615.575 1585.16 616.971 1579.64 616.971 1573.2 616.971 1567.77 615.897 1563.37 613.749 1558.96 611.6 1555.4 608.682 1552.68 604.994 1549.96 601.306 1548.01 597.009 1546.82 592.103 1545.64 587.198 1545.05 581.236 1545.05 574.218L1545.05 515.565C1545.05 514.992 1545.18 514.509 1545.43 514.115 1545.68 513.721 1546.16 513.363 1546.88 513.041 1547.59 512.719 1548.52 512.504 1549.67 512.396 1550.82 512.289 1552.25 512.235 1553.97 512.235ZM1271.81 510.731C1274.38 510.731 1276.96 510.946 1279.54 511.376 1282.12 511.805 1284.45 512.343 1286.52 512.987 1288.6 513.632 1290.37 514.33 1291.84 515.082 1293.31 515.834 1294.42 516.496 1295.17 517.069 1295.92 517.642 1296.42 518.143 1296.67 518.573 1296.93 519.003 1297.1 519.486 1297.21 520.023 1297.32 520.56 1297.43 521.223 1297.53 522.011 1297.64 522.798 1297.69 523.765 1297.7 524.911 1297.69 526.128 1297.64 527.185 1297.53 528.08 1297.43 528.975 1297.25 529.709 1297 530.282 1296.75 530.855 1296.44 531.267 1296.08 531.517 1295.73 531.768 1295.33 531.893 1294.9 531.893 1294.26 531.893 1293.33 531.5 1292.11 530.712 1290.89 529.924 1289.32 529.083 1287.38 528.187 1285.45 527.292 1283.18 526.451 1280.56 525.663 1277.95 524.875 1274.96 524.481 1271.59 524.481 1268.58 524.481 1265.93 524.821 1263.64 525.502 1261.35 526.182 1259.47 527.149 1258 528.402 1256.53 529.655 1255.42 531.141 1254.67 532.86 1253.92 534.579 1253.54 536.441 1253.54 538.446 1253.54 541.239 1254.26 543.584 1255.69 545.482 1257.13 547.38 1258.99 549.045 1261.28 550.477 1263.57 551.91 1266.18 553.199 1269.12 554.345 1272.06 555.49 1275.05 556.672 1278.09 557.889 1281.13 559.107 1284.14 560.468 1287.11 561.971 1290.09 563.475 1292.72 565.302 1295.01 567.45 1297.3 569.598 1299.15 572.177 1300.54 575.184 1301.94 578.192 1302.64 581.773 1302.64 585.927 1302.64 590.868 1301.72 595.272 1299.9 599.139 1298.07 603.007 1295.47 606.265 1292.11 608.915 1288.74 611.565 1284.73 613.57 1280.08 614.93 1275.42 616.291 1270.3 616.971 1264.72 616.971 1261.28 616.971 1258 616.703 1254.89 616.166 1251.77 615.629 1248.98 614.948 1246.51 614.125 1244.04 613.301 1241.94 612.442 1240.22 611.547 1238.51 610.651 1237.25 609.846 1236.46 609.13 1235.68 608.414 1235.1 607.411 1234.75 606.122 1234.39 604.833 1234.21 603.078 1234.21 600.858 1234.21 599.498 1234.28 598.352 1234.42 597.421 1234.57 596.49 1234.75 595.738 1234.96 595.165 1235.18 594.592 1235.48 594.18 1235.87 593.93 1236.27 593.679 1236.72 593.554 1237.22 593.554 1238 593.554 1239.17 594.037 1240.71 595.004 1242.25 595.971 1244.15 597.027 1246.4 598.173 1248.66 599.318 1251.32 600.375 1254.4 601.342 1257.48 602.308 1261.03 602.792 1265.04 602.792 1268.05 602.792 1270.77 602.47 1273.2 601.825 1275.64 601.18 1277.75 600.232 1279.54 598.978 1281.33 597.725 1282.71 596.132 1283.68 594.198 1284.64 592.264 1285.13 589.973 1285.13 587.323 1285.13 584.602 1284.43 582.31 1283.03 580.448 1281.64 578.586 1279.79 576.939 1277.5 575.507 1275.21 574.074 1272.63 572.803 1269.77 571.693 1266.9 570.583 1263.95 569.419 1260.9 568.202 1257.86 566.984 1254.89 565.606 1251.99 564.066 1249.09 562.526 1246.49 560.647 1244.2 558.427 1241.91 556.207 1240.06 553.557 1238.67 550.477 1237.27 547.398 1236.57 543.71 1236.57 539.413 1236.57 535.617 1237.31 531.983 1238.77 528.51 1240.24 525.036 1242.44 521.993 1245.38 519.379 1248.32 516.765 1251.99 514.67 1256.39 513.095 1260.8 511.519 1265.93 510.731 1271.81 510.731ZM1211.36 510.731C1212.29 510.731 1213.35 510.785 1214.53 510.892 1215.71 511 1216.95 511.197 1218.24 511.483 1219.53 511.77 1220.69 512.092 1221.73 512.45 1222.77 512.808 1223.5 513.166 1223.93 513.524 1224.36 513.882 1224.65 514.222 1224.79 514.545 1224.93 514.867 1225.06 515.279 1225.17 515.78 1225.27 516.281 1225.34 517.015 1225.38 517.982 1225.42 518.949 1225.43 520.256 1225.43 521.903 1225.43 523.479 1225.4 524.804 1225.33 525.878 1225.26 526.952 1225.11 527.793 1224.9 528.402 1224.68 529.011 1224.41 529.476 1224.09 529.799 1223.77 530.121 1223.32 530.282 1222.75 530.282 1222.18 530.282 1221.48 530.121 1220.65 529.799 1219.83 529.476 1218.9 529.154 1217.86 528.832 1216.82 528.51 1215.66 528.205 1214.37 527.919 1213.08 527.632 1211.68 527.489 1210.18 527.489 1208.39 527.489 1206.64 527.847 1204.92 528.563 1203.2 529.279 1201.39 530.461 1199.49 532.108 1197.59 533.755 1195.61 535.94 1193.53 538.661 1191.45 541.382 1189.16 544.712 1186.66 548.651L1186.66 612.245C1186.66 612.818 1186.51 613.301 1186.23 613.695 1185.94 614.089 1185.47 614.429 1184.83 614.716 1184.18 615.002 1183.29 615.217 1182.14 615.36 1181 615.503 1179.53 615.575 1177.74 615.575 1176.02 615.575 1174.59 615.503 1173.44 615.36 1172.3 615.217 1171.38 615.002 1170.7 614.716 1170.02 614.429 1169.56 614.089 1169.31 613.695 1169.06 613.301 1168.93 612.818 1168.93 612.245L1168.93 515.565C1168.93 514.992 1169.04 514.509 1169.25 514.115 1169.47 513.721 1169.9 513.363 1170.54 513.041 1171.19 512.719 1172.01 512.504 1173.01 512.396 1174.02 512.289 1175.34 512.235 1176.99 512.235 1178.56 512.235 1179.87 512.289 1180.91 512.396 1181.95 512.504 1182.75 512.719 1183.33 513.041 1183.9 513.363 1184.31 513.721 1184.56 514.115 1184.81 514.509 1184.94 514.992 1184.94 515.565L1184.94 529.638C1187.59 525.77 1190.07 522.619 1192.4 520.184 1194.73 517.75 1196.93 515.834 1199.01 514.437 1201.09 513.041 1203.14 512.074 1205.19 511.537 1207.23 511 1209.29 510.731 1211.36 510.731ZM1099.46 510.731C1107.06 510.731 1113.52 511.949 1118.85 514.384 1124.19 516.818 1128.58 520.095 1132.01 524.213 1135.45 528.331 1137.98 533.165 1139.59 538.715 1141.2 544.265 1142 550.191 1142 556.493L1142 559.716C1142 562.509 1141.3 564.496 1139.9 565.678 1138.5 566.859 1136.9 567.45 1135.1 567.45L1071.43 567.45C1071.43 572.821 1071.97 577.655 1073.05 581.952 1074.13 586.249 1075.92 589.937 1078.44 593.016 1080.96 596.096 1084.24 598.459 1088.27 600.106 1092.3 601.753 1097.23 602.577 1103.05 602.577 1107.66 602.577 1111.76 602.201 1115.36 601.449 1118.96 600.697 1122.07 599.856 1124.7 598.925 1127.32 597.994 1129.48 597.152 1131.17 596.4 1132.87 595.648 1134.14 595.272 1135.01 595.272 1135.51 595.272 1135.96 595.398 1136.36 595.648 1136.75 595.899 1137.06 596.275 1137.27 596.776 1137.49 597.277 1137.65 597.976 1137.76 598.871 1137.87 599.766 1137.92 600.858 1137.92 602.147 1137.92 603.078 1137.89 603.884 1137.81 604.564 1137.74 605.245 1137.65 605.853 1137.55 606.39 1137.44 606.928 1137.26 607.411 1137.01 607.841 1136.76 608.27 1136.44 608.682 1136.04 609.076 1135.65 609.47 1134.48 610.114 1132.55 611.01 1130.62 611.905 1128.11 612.782 1125.03 613.641 1121.95 614.501 1118.39 615.271 1114.34 615.951 1110.3 616.631 1105.98 616.971 1101.4 616.971 1093.45 616.971 1086.48 615.861 1080.5 613.641 1074.52 611.421 1069.49 608.127 1065.41 603.759 1061.33 599.39 1058.25 593.912 1056.17 587.323 1054.1 580.734 1053.06 573.072 1053.06 564.335 1053.06 556.027 1054.13 548.562 1056.28 541.937 1058.43 535.313 1061.53 529.691 1065.57 525.072 1069.62 520.453 1074.51 516.908 1080.24 514.437 1085.97 511.967 1092.37 510.731 1099.46 510.731ZM930.991 510.731C935.002 510.731 938.6 511.197 941.787 512.128 944.974 513.059 947.785 514.366 950.22 516.049 952.655 517.732 954.731 519.737 956.45 522.064 958.169 524.392 959.601 526.988 960.747 529.852 963.97 526.343 967.031 523.371 969.932 520.936 972.832 518.501 975.625 516.532 978.31 515.028 980.996 513.524 983.61 512.432 986.152 511.752 988.695 511.071 991.255 510.731 993.833 510.731 1000.06 510.731 1005.29 511.823 1009.52 514.008 1013.74 516.192 1017.16 519.11 1019.78 522.763 1022.39 526.415 1024.25 530.694 1025.36 535.599 1026.47 540.505 1027.03 545.679 1027.03 551.122L1027.03 612.245C1027.03 612.818 1026.88 613.301 1026.6 613.695 1026.31 614.089 1025.84 614.429 1025.2 614.716 1024.56 615.002 1023.66 615.217 1022.51 615.36 1021.37 615.503 1019.94 615.575 1018.22 615.575 1016.43 615.575 1014.96 615.503 1013.81 615.36 1012.67 615.217 1011.75 615.002 1011.07 614.716 1010.39 614.429 1009.91 614.089 1009.62 613.695 1009.34 613.301 1009.19 612.818 1009.19 612.245L1009.19 553.485C1009.19 549.403 1008.84 545.679 1008.12 542.313 1007.4 538.947 1006.26 536.047 1004.68 533.612 1003.11 531.177 1001.1 529.315 998.667 528.026 996.232 526.737 993.367 526.093 990.073 526.093 985.991 526.093 981.891 527.668 977.773 530.819 973.655 533.97 969.126 538.589 964.184 544.677L964.184 612.245C964.184 612.818 964.041 613.301 963.755 613.695 963.468 614.089 962.985 614.429 962.305 614.716 961.624 615.002 960.711 615.217 959.565 615.36 958.419 615.503 956.987 615.575 955.268 615.575 953.621 615.575 952.207 615.503 951.025 615.36 949.844 615.217 948.913 615.002 948.232 614.716 947.552 614.429 947.086 614.089 946.836 613.695 946.585 613.301 946.46 612.818 946.46 612.245L946.46 553.485C946.46 549.403 946.066 545.679 945.278 542.313 944.49 538.947 943.309 536.047 941.733 533.612 940.158 531.177 938.17 529.315 935.771 528.026 933.372 526.737 930.526 526.093 927.231 526.093 923.149 526.093 919.031 527.668 914.878 530.819 910.724 533.97 906.212 538.589 901.343 544.677L901.343 612.245C901.343 612.818 901.199 613.301 900.913 613.695 900.627 614.089 900.161 614.429 899.517 614.716 898.872 615.002 897.977 615.217 896.831 615.36 895.685 615.503 894.217 615.575 892.427 615.575 890.708 615.575 889.276 615.503 888.13 615.36 886.984 615.217 886.071 615.002 885.391 614.716 884.71 614.429 884.245 614.089 883.994 613.695 883.743 613.301 883.618 612.818 883.618 612.245L883.618 515.565C883.618 514.992 883.726 514.509 883.94 514.115 884.155 513.721 884.585 513.363 885.229 513.041 885.874 512.719 886.698 512.504 887.7 512.396 888.703 512.289 890.028 512.235 891.675 512.235 893.25 512.235 894.557 512.289 895.596 512.396 896.634 512.504 897.44 512.719 898.013 513.041 898.586 513.363 898.997 513.721 899.248 514.115 899.499 514.509 899.624 514.992 899.624 515.565L899.624 528.348C905.067 522.261 910.348 517.803 915.469 514.974 920.589 512.146 925.763 510.731 930.991 510.731ZM812.899 510.731C819.845 510.731 825.753 511.519 830.623 513.095 835.493 514.67 839.432 516.98 842.44 520.023 845.448 523.067 847.632 526.845 848.992 531.356 850.353 535.868 851.033 541.132 851.033 547.147L851.033 612.352C851.033 613.212 850.747 613.856 850.174 614.286 849.601 614.716 848.813 615.038 847.811 615.253 846.808 615.468 845.34 615.575 843.406 615.575 841.544 615.575 840.058 615.468 838.948 615.253 837.838 615.038 837.033 614.716 836.531 614.286 836.03 613.856 835.78 613.212 835.78 612.352L835.78 602.684C831.554 607.196 826.846 610.705 821.654 613.212 816.461 615.718 810.965 616.971 805.164 616.971 800.08 616.971 795.478 616.309 791.361 614.984 787.243 613.659 783.734 611.744 780.833 609.237 777.933 606.731 775.677 603.651 774.066 599.999 772.454 596.346 771.649 592.193 771.649 587.538 771.649 582.095 772.759 577.369 774.979 573.358 777.199 569.348 780.386 566.018 784.539 563.368 788.693 560.718 793.778 558.731 799.793 557.406 805.809 556.081 812.576 555.419 820.096 555.419L833.416 555.419 833.416 547.899C833.416 544.175 833.022 540.881 832.235 538.016 831.447 535.152 830.176 532.771 828.421 530.873 826.667 528.975 824.393 527.543 821.6 526.576 818.807 525.609 815.369 525.126 811.287 525.126 806.919 525.126 802.998 525.645 799.525 526.683 796.051 527.722 793.008 528.868 790.394 530.121 787.78 531.374 785.596 532.52 783.841 533.558 782.086 534.597 780.78 535.116 779.92 535.116 779.347 535.116 778.846 534.973 778.416 534.686 777.987 534.4 777.611 533.97 777.288 533.397 776.966 532.824 776.733 532.09 776.59 531.195 776.447 530.3 776.375 529.315 776.375 528.241 776.375 526.451 776.501 525.036 776.751 523.998 777.002 522.959 777.611 521.975 778.577 521.044 779.544 520.113 781.209 519.021 783.573 517.767 785.936 516.514 788.657 515.368 791.737 514.33 794.816 513.292 798.182 512.432 801.834 511.752 805.487 511.071 809.175 510.731 812.899 510.731ZM708.735 510.731C716.326 510.731 722.79 511.949 728.125 514.384 733.46 516.818 737.847 520.095 741.284 524.213 744.722 528.331 747.246 533.165 748.857 538.715 750.469 544.265 751.274 550.191 751.274 556.493L751.274 559.716C751.274 562.509 750.573 564.496 749.17 565.678 747.768 566.859 746.167 567.45 744.367 567.45L680.698 567.45C680.698 572.821 681.238 577.655 682.317 581.952 683.396 586.249 685.195 589.937 687.714 593.016 690.233 596.096 693.507 598.459 697.537 600.106 701.567 601.753 706.497 602.577 712.326 602.577 716.931 602.577 721.033 602.201 724.631 601.449 728.229 600.697 731.342 599.856 733.969 598.925 736.595 597.994 738.754 597.152 740.446 596.4 742.137 595.648 743.415 595.272 744.279 595.272 744.782 595.272 745.232 595.398 745.627 595.648 746.023 595.899 746.328 596.275 746.544 596.776 746.76 597.277 746.922 597.976 747.03 598.871 747.138 599.766 747.192 600.858 747.192 602.147 747.192 603.078 747.156 603.884 747.085 604.564 747.013 605.245 746.924 605.853 746.816 606.39 746.709 606.928 746.53 607.411 746.279 607.841 746.029 608.27 745.706 608.682 745.312 609.076 744.919 609.47 743.755 610.114 741.821 611.01 739.888 611.905 737.381 612.782 734.302 613.641 731.222 614.501 727.659 615.271 723.613 615.951 719.567 616.631 715.252 616.971 710.669 616.971 702.72 616.971 695.755 615.861 689.775 613.641 683.795 611.421 678.765 608.127 674.683 603.759 670.601 599.39 667.521 593.912 665.444 587.323 663.367 580.734 662.329 573.072 662.329 564.335 662.329 556.027 663.403 548.562 665.552 541.937 667.7 535.313 670.797 529.691 674.844 525.072 678.89 520.453 683.778 516.908 689.507 514.437 695.236 511.967 701.645 510.731 708.735 510.731ZM637.346 510.731C638.277 510.731 639.333 510.785 640.515 510.892 641.696 511 642.932 511.197 644.221 511.483 645.51 511.77 646.673 512.092 647.712 512.45 648.75 512.808 649.484 513.166 649.914 513.524 650.344 513.882 650.63 514.222 650.773 514.545 650.917 514.867 651.042 515.279 651.149 515.78 651.257 516.281 651.328 517.015 651.364 517.982 651.4 518.949 651.418 520.256 651.418 521.903 651.418 523.479 651.382 524.804 651.31 525.878 651.239 526.952 651.096 527.793 650.881 528.402 650.666 529.011 650.397 529.476 650.075 529.799 649.753 530.121 649.305 530.282 648.732 530.282 648.159 530.282 647.461 530.121 646.638 529.799 645.814 529.476 644.883 529.154 643.845 528.832 642.806 528.51 641.642 528.205 640.353 527.919 639.064 527.632 637.668 527.489 636.164 527.489 634.374 527.489 632.619 527.847 630.9 528.563 629.182 529.279 627.373 530.461 625.475 532.108 623.578 533.755 621.59 535.94 619.514 538.661 617.437 541.382 615.145 544.712 612.639 548.651L612.639 612.245C612.639 612.818 612.495 613.301 612.209 613.695 611.922 614.089 611.457 614.429 610.812 614.716 610.168 615.002 609.273 615.217 608.127 615.36 606.981 615.503 605.513 615.575 603.723 615.575 602.004 615.575 600.571 615.503 599.426 615.36 598.28 615.217 597.367 615.002 596.686 614.716 596.006 614.429 595.541 614.089 595.29 613.695 595.039 613.301 594.914 612.818 594.914 612.245L594.914 515.565C594.914 514.992 595.021 514.509 595.236 514.115 595.451 513.721 595.881 513.363 596.525 513.041 597.17 512.719 597.993 512.504 598.996 512.396 599.999 512.289 601.323 512.235 602.971 512.235 604.546 512.235 605.853 512.289 606.891 512.396 607.93 512.504 608.736 512.719 609.308 513.041 609.881 513.363 610.293 513.721 610.544 514.115 610.794 514.509 610.92 514.992 610.92 515.565L610.92 529.638C613.57 525.77 616.058 522.619 618.386 520.184 620.713 517.75 622.915 515.834 624.992 514.437 627.069 513.041 629.128 512.074 631.169 511.537 633.21 511 635.269 510.731 637.346 510.731ZM480.223 491.288 480.223 599.462 499.237 599.462C508.117 599.462 515.601 598.352 521.688 596.132 527.775 593.912 532.86 590.51 536.942 585.927 541.024 581.343 544.085 575.596 546.126 568.685 548.167 561.775 549.188 553.593 549.188 544.139 549.188 536.62 548.257 529.62 546.395 523.138 544.533 516.657 541.615 511.054 537.64 506.327 533.666 501.6 528.635 497.912 522.547 495.263 516.46 492.613 508.618 491.288 499.022 491.288ZM468.622 475.927 500.096 475.927C512.127 475.927 522.297 477.484 530.604 480.599 538.911 483.715 545.876 488.191 551.498 494.027 557.119 499.864 561.38 506.936 564.281 515.243 567.181 523.55 568.631 532.932 568.631 543.388 568.631 555.419 567.092 565.928 564.012 574.916 560.933 583.903 556.439 591.351 550.531 597.26 544.623 603.168 537.372 607.59 528.778 610.526 520.184 613.462 509.943 614.93 498.055 614.93L468.622 614.93C466.974 614.93 465.417 614.375 463.949 613.265 462.481 612.155 461.747 610.204 461.747 607.411L461.747 483.446C461.747 480.653 462.481 478.702 463.949 477.592 465.417 476.482 466.974 475.927 468.622 475.927ZM1432.83 474.208C1436.84 474.208 1440.74 474.584 1444.54 475.336 1448.34 476.088 1451.85 477.037 1455.07 478.182 1458.29 479.328 1461.16 480.653 1463.66 482.157 1466.17 483.661 1467.9 484.896 1468.87 485.863 1469.84 486.83 1470.47 487.564 1470.75 488.065 1471.04 488.567 1471.27 489.157 1471.45 489.838 1471.63 490.518 1471.77 491.324 1471.88 492.255 1471.99 493.186 1472.04 494.296 1472.04 495.585 1472.04 497.017 1471.97 498.235 1471.82 499.237 1471.68 500.24 1471.47 501.081 1471.18 501.762 1470.89 502.442 1470.55 502.943 1470.15 503.265 1469.75 503.588 1469.27 503.749 1468.69 503.749 1467.68 503.749 1466.28 503.051 1464.48 501.654 1462.68 500.258 1460.36 498.718 1457.51 497.035 1454.67 495.352 1451.21 493.812 1447.15 492.416 1443.08 491.019 1438.2 490.321 1432.51 490.321 1426.32 490.321 1420.69 491.556 1415.61 494.027 1410.54 496.498 1406.2 500.132 1402.6 504.93 1399 509.729 1396.21 515.583 1394.23 522.494 1392.25 529.405 1391.26 537.3 1391.26 546.18 1391.26 554.989 1392.21 562.777 1394.12 569.545 1396.03 576.312 1398.76 581.97 1402.33 586.517 1405.89 591.065 1410.27 594.502 1415.45 596.83 1420.63 599.157 1426.5 600.321 1433.05 600.321 1438.6 600.321 1443.44 599.641 1447.58 598.28 1451.72 596.919 1455.25 595.398 1458.16 593.715 1461.08 592.032 1463.47 590.51 1465.34 589.149 1467.21 587.789 1468.69 587.108 1469.77 587.108 1470.27 587.108 1470.71 587.216 1471.07 587.43 1471.43 587.645 1471.71 588.057 1471.93 588.666 1472.15 589.275 1472.31 590.116 1472.42 591.19 1472.52 592.264 1472.58 593.625 1472.58 595.272 1472.58 596.418 1472.54 597.421 1472.47 598.28 1472.4 599.139 1472.27 599.891 1472.09 600.536 1471.92 601.18 1471.68 601.753 1471.4 602.255 1471.11 602.756 1470.61 603.365 1469.89 604.081 1469.18 604.797 1467.67 605.889 1465.38 607.357 1463.09 608.825 1460.24 610.258 1456.84 611.654 1453.44 613.051 1449.54 614.232 1445.13 615.199 1440.73 616.166 1435.91 616.649 1430.68 616.649 1421.66 616.649 1413.51 615.145 1406.24 612.138 1398.98 609.13 1392.78 604.69 1387.66 598.817 1382.54 592.945 1378.6 585.694 1375.84 577.064 1373.09 568.435 1371.71 558.498 1371.71 547.255 1371.71 535.725 1373.19 525.448 1376.17 516.425 1379.14 507.401 1383.31 499.756 1388.68 493.49 1394.05 487.224 1400.48 482.444 1407.96 479.149 1415.45 475.855 1423.74 474.208 1432.83 474.208ZM1670.13 465.292C1671.92 465.292 1673.38 465.363 1674.53 465.507 1675.68 465.65 1676.57 465.865 1677.22 466.151 1677.86 466.438 1678.33 466.796 1678.61 467.225 1678.9 467.655 1679.04 468.156 1679.04 468.729L1679.04 526.63C1681.91 523.693 1684.68 521.223 1687.37 519.218 1690.05 517.212 1692.68 515.583 1695.26 514.33 1697.84 513.077 1700.42 512.164 1703 511.591 1705.58 511.018 1708.3 510.731 1711.16 510.731 1718.18 510.731 1724.18 512.128 1729.15 514.921 1734.13 517.714 1738.18 521.456 1741.29 526.146 1744.41 530.837 1746.68 536.333 1748.11 542.636 1749.55 548.938 1750.26 555.598 1750.26 562.616 1750.26 570.995 1749.35 578.532 1747.52 585.228 1745.7 591.924 1743.01 597.636 1739.47 602.362 1735.92 607.089 1731.57 610.705 1726.42 613.212 1721.26 615.718 1715.35 616.971 1708.69 616.971 1705.61 616.971 1702.76 616.667 1700.15 616.058 1697.54 615.45 1694.98 614.465 1692.47 613.104 1689.96 611.744 1687.46 610.025 1684.95 607.948 1682.44 605.871 1679.79 603.365 1677 600.429L1677 612.245C1677 612.818 1676.86 613.319 1676.57 613.749 1676.29 614.179 1675.82 614.519 1675.18 614.769 1674.53 615.02 1673.72 615.217 1672.76 615.36 1671.79 615.503 1670.56 615.575 1669.05 615.575 1667.62 615.575 1666.4 615.503 1665.4 615.36 1664.4 615.217 1663.57 615.02 1662.93 614.769 1662.28 614.519 1661.85 614.179 1661.64 613.749 1661.43 613.319 1661.32 612.818 1661.32 612.245L1661.32 468.729C1661.32 468.156 1661.44 467.655 1661.69 467.225 1661.94 466.796 1662.41 466.438 1663.09 466.151 1663.77 465.865 1664.68 465.65 1665.83 465.507 1666.98 465.363 1668.41 465.292 1670.13 465.292ZM1503.98 465.292C1505.77 465.292 1507.24 465.363 1508.39 465.507 1509.53 465.65 1510.43 465.865 1511.07 466.151 1511.72 466.438 1512.18 466.796 1512.47 467.225 1512.75 467.655 1512.9 468.156 1512.9 468.729L1512.9 612.245C1512.9 612.818 1512.75 613.301 1512.47 613.695 1512.18 614.089 1511.72 614.429 1511.07 614.716 1510.43 615.002 1509.53 615.217 1508.39 615.36 1507.24 615.503 1505.77 615.575 1503.98 615.575 1502.26 615.575 1500.83 615.503 1499.68 615.36 1498.54 615.217 1497.62 615.002 1496.94 614.716 1496.26 614.429 1495.8 614.089 1495.55 613.695 1495.3 613.301 1495.17 612.818 1495.17 612.245L1495.17 468.729C1495.17 468.156 1495.3 467.655 1495.55 467.225 1495.8 466.796 1496.26 466.438 1496.94 466.151 1497.62 465.865 1498.54 465.65 1499.68 465.507 1500.83 465.363 1502.26 465.292 1503.98 465.292Z" stroke="#0D0D0D" stroke-width="3" stroke-linecap="butt" stroke-linejoin="round" stroke-miterlimit="10" stroke-opacity="1" fill="none" fill-rule="evenodd"/><text fill="#000000" fill-opacity="0" font-family="Arial,Arial_MSFontService,sans-serif" font-size="151.68" direction="ltr" writing-mode="lr-tb" x="461.747" y="598.012">Dreamers Club</text></g></g></svg>